# slice3d sample UV sphere
v 0.000000 0.000000 1.000000
v 0.000000 0.000000 1.000000
v 0.000000 0.000000 1.000000
v 0.000000 0.000000 1.000000
v 0.000000 0.000000 1.000000
v 0.000000 0.000000 1.000000
v 0.000000 0.000000 1.000000
v 0.000000 0.000000 1.000000
v 0.000000 0.000000 1.000000
v 0.000000 0.000000 1.000000
v 0.000000 0.000000 1.000000
v -0.000000 0.000000 1.000000
v -0.000000 0.000000 1.000000
v -0.000000 0.000000 1.000000
v -0.000000 0.000000 1.000000
v -0.000000 0.000000 1.000000
v -0.000000 0.000000 1.000000
v -0.000000 0.000000 1.000000
v -0.000000 0.000000 1.000000
v -0.000000 0.000000 1.000000
v -0.000000 0.000000 1.000000
v -0.000000 -0.000000 1.000000
v -0.000000 -0.000000 1.000000
v -0.000000 -0.000000 1.000000
v -0.000000 -0.000000 1.000000
v -0.000000 -0.000000 1.000000
v 0.000000 -0.000000 1.000000
v -0.000000 -0.000000 1.000000
v -0.000000 -0.000000 1.000000
v -0.000000 -0.000000 1.000000
v -0.000000 -0.000000 1.000000
v 0.000000 -0.000000 1.000000
v 0.000000 -0.000000 1.000000
v 0.000000 -0.000000 1.000000
v 0.000000 -0.000000 1.000000
v 0.000000 -0.000000 1.000000
v 0.000000 -0.000000 1.000000
v 0.000000 -0.000000 1.000000
v 0.000000 -0.000000 1.000000
v 0.000000 -0.000000 1.000000
v 0.078459 0.000000 0.996917
v 0.077493 0.012274 0.996917
v 0.074619 0.024245 0.996917
v 0.069908 0.035620 0.996917
v 0.063475 0.046117 0.996917
v 0.055479 0.055479 0.996917
v 0.046117 0.063475 0.996917
v 0.035620 0.069908 0.996917
v 0.024245 0.074619 0.996917
v 0.012274 0.077493 0.996917
v 0.000000 0.078459 0.996917
v -0.012274 0.077493 0.996917
v -0.024245 0.074619 0.996917
v -0.035619 0.069908 0.996917
v -0.046117 0.063475 0.996917
v -0.055479 0.055479 0.996917
v -0.063475 0.046117 0.996917
v -0.069908 0.035620 0.996917
v -0.074619 0.024245 0.996917
v -0.077493 0.012274 0.996917
v -0.078459 0.000000 0.996917
v -0.077493 -0.012274 0.996917
v -0.074619 -0.024245 0.996917
v -0.069908 -0.035620 0.996917
v -0.063475 -0.046117 0.996917
v -0.055479 -0.055479 0.996917
v -0.046117 -0.063475 0.996917
v -0.035619 -0.069908 0.996917
v -0.024245 -0.074619 0.996917
v -0.012274 -0.077493 0.996917
v -0.000000 -0.078459 0.996917
v 0.012274 -0.077493 0.996917
v 0.024245 -0.074619 0.996917
v 0.035620 -0.069908 0.996917
v 0.046117 -0.063475 0.996917
v 0.055479 -0.055479 0.996917
v 0.063475 -0.046117 0.996917
v 0.069908 -0.035620 0.996917
v 0.074619 -0.024245 0.996917
v 0.077492 -0.012274 0.996917
v 0.156434 0.000000 0.987688
v 0.154508 0.024472 0.987688
v 0.148778 0.048341 0.987688
v 0.139384 0.071020 0.987688
v 0.126558 0.091950 0.987688
v 0.110616 0.110616 0.987688
v 0.091950 0.126558 0.987688
v 0.071020 0.139384 0.987688
v 0.048341 0.148778 0.987688
v 0.024472 0.154508 0.987688
v 0.000000 0.156434 0.987688
v -0.024472 0.154508 0.987688
v -0.048341 0.148778 0.987688
v -0.071020 0.139384 0.987688
v -0.091950 0.126558 0.987688
v -0.110616 0.110616 0.987688
v -0.126558 0.091950 0.987688
v -0.139384 0.071020 0.987688
v -0.148778 0.048341 0.987688
v -0.154508 0.024472 0.987688
v -0.156434 0.000000 0.987688
v -0.154508 -0.024472 0.987688
v -0.148778 -0.048341 0.987688
v -0.139384 -0.071020 0.987688
v -0.126558 -0.091950 0.987688
v -0.110616 -0.110616 0.987688
v -0.091950 -0.126558 0.987688
v -0.071020 -0.139384 0.987688
v -0.048341 -0.148778 0.987688
v -0.024472 -0.154508 0.987688
v -0.000000 -0.156434 0.987688
v 0.024472 -0.154508 0.987688
v 0.048341 -0.148778 0.987688
v 0.071020 -0.139384 0.987688
v 0.091950 -0.126558 0.987688
v 0.110616 -0.110616 0.987688
v 0.126558 -0.091950 0.987688
v 0.139384 -0.071020 0.987688
v 0.148778 -0.048341 0.987688
v 0.154508 -0.024472 0.987688
v 0.233445 0.000000 0.972370
v 0.230571 0.036519 0.972370
v 0.222020 0.072139 0.972370
v 0.208001 0.105982 0.972370
v 0.188861 0.137216 0.972370
v 0.165071 0.165071 0.972370
v 0.137216 0.188861 0.972370
v 0.105982 0.208001 0.972370
v 0.072139 0.222020 0.972370
v 0.036519 0.230571 0.972370
v 0.000000 0.233445 0.972370
v -0.036519 0.230571 0.972370
v -0.072139 0.222020 0.972370
v -0.105982 0.208001 0.972370
v -0.137216 0.188861 0.972370
v -0.165071 0.165071 0.972370
v -0.188861 0.137216 0.972370
v -0.208001 0.105982 0.972370
v -0.222020 0.072139 0.972370
v -0.230571 0.036519 0.972370
v -0.233445 0.000000 0.972370
v -0.230571 -0.036519 0.972370
v -0.222020 -0.072139 0.972370
v -0.208001 -0.105982 0.972370
v -0.188861 -0.137216 0.972370
v -0.165071 -0.165071 0.972370
v -0.137216 -0.188861 0.972370
v -0.105982 -0.208001 0.972370
v -0.072139 -0.222020 0.972370
v -0.036519 -0.230571 0.972370
v -0.000000 -0.233445 0.972370
v 0.036519 -0.230571 0.972370
v 0.072139 -0.222020 0.972370
v 0.105982 -0.208001 0.972370
v 0.137216 -0.188861 0.972370
v 0.165071 -0.165071 0.972370
v 0.188861 -0.137216 0.972370
v 0.208001 -0.105982 0.972370
v 0.222020 -0.072139 0.972370
v 0.230571 -0.036519 0.972370
v 0.309017 0.000000 0.951057
v 0.305212 0.048341 0.951057
v 0.293893 0.095492 0.951057
v 0.275336 0.140291 0.951057
v 0.250000 0.181636 0.951057
v 0.218508 0.218508 0.951057
v 0.181636 0.250000 0.951057
v 0.140291 0.275336 0.951057
v 0.095492 0.293893 0.951057
v 0.048341 0.305212 0.951057
v 0.000000 0.309017 0.951057
v -0.048341 0.305212 0.951057
v -0.095492 0.293893 0.951057
v -0.140291 0.275336 0.951057
v -0.181636 0.250000 0.951057
v -0.218508 0.218508 0.951057
v -0.250000 0.181636 0.951057
v -0.275336 0.140291 0.951057
v -0.293893 0.095492 0.951057
v -0.305212 0.048341 0.951057
v -0.309017 0.000000 0.951057
v -0.305212 -0.048341 0.951057
v -0.293893 -0.095492 0.951057
v -0.275336 -0.140291 0.951057
v -0.250000 -0.181636 0.951057
v -0.218508 -0.218508 0.951057
v -0.181636 -0.250000 0.951057
v -0.140291 -0.275336 0.951057
v -0.095492 -0.293893 0.951057
v -0.048341 -0.305212 0.951057
v -0.000000 -0.309017 0.951057
v 0.048341 -0.305212 0.951057
v 0.095492 -0.293893 0.951057
v 0.140291 -0.275336 0.951057
v 0.181636 -0.250000 0.951057
v 0.218508 -0.218508 0.951057
v 0.250000 -0.181636 0.951057
v 0.275336 -0.140291 0.951057
v 0.293893 -0.095492 0.951057
v 0.305212 -0.048341 0.951057
v 0.382683 0.000000 0.923880
v 0.377972 0.059865 0.923880
v 0.363954 0.118256 0.923880
v 0.340973 0.173735 0.923880
v 0.309597 0.224936 0.923880
v 0.270598 0.270598 0.923880
v 0.224936 0.309597 0.923880
v 0.173735 0.340973 0.923880
v 0.118256 0.363954 0.923880
v 0.059865 0.377972 0.923880
v 0.000000 0.382683 0.923880
v -0.059865 0.377972 0.923880
v -0.118256 0.363954 0.923880
v -0.173736 0.340973 0.923880
v -0.224936 0.309597 0.923880
v -0.270598 0.270598 0.923880
v -0.309597 0.224936 0.923880
v -0.340973 0.173735 0.923880
v -0.363954 0.118256 0.923880
v -0.377972 0.059865 0.923880
v -0.382683 0.000000 0.923880
v -0.377972 -0.059865 0.923880
v -0.363954 -0.118256 0.923880
v -0.340973 -0.173735 0.923880
v -0.309597 -0.224936 0.923880
v -0.270598 -0.270598 0.923880
v -0.224936 -0.309597 0.923880
v -0.173735 -0.340973 0.923880
v -0.118256 -0.363954 0.923880
v -0.059865 -0.377972 0.923880
v -0.000000 -0.382683 0.923880
v 0.059865 -0.377972 0.923880
v 0.118256 -0.363954 0.923880
v 0.173734 -0.340973 0.923880
v 0.224936 -0.309597 0.923880
v 0.270598 -0.270598 0.923880
v 0.309597 -0.224936 0.923880
v 0.340973 -0.173735 0.923880
v 0.363954 -0.118256 0.923880
v 0.377972 -0.059865 0.923880
v 0.453990 0.000000 0.891007
v 0.448401 0.071020 0.891007
v 0.431771 0.140291 0.891007
v 0.404508 0.206107 0.891007
v 0.367286 0.266849 0.891007
v 0.321020 0.321020 0.891007
v 0.266849 0.367286 0.891007
v 0.206107 0.404508 0.891007
v 0.140291 0.431771 0.891007
v 0.071020 0.448401 0.891007
v 0.000000 0.453990 0.891007
v -0.071020 0.448401 0.891007
v -0.140291 0.431771 0.891007
v -0.206107 0.404508 0.891007
v -0.266849 0.367286 0.891007
v -0.321020 0.321020 0.891007
v -0.367286 0.266849 0.891007
v -0.404508 0.206107 0.891007
v -0.431771 0.140291 0.891007
v -0.448401 0.071020 0.891007
v -0.453990 0.000000 0.891007
v -0.448401 -0.071020 0.891007
v -0.431771 -0.140291 0.891007
v -0.404508 -0.206107 0.891007
v -0.367286 -0.266849 0.891007
v -0.321020 -0.321020 0.891007
v -0.266849 -0.367286 0.891007
v -0.206107 -0.404508 0.891007
v -0.140291 -0.431771 0.891007
v -0.071020 -0.448401 0.891007
v -0.000000 -0.453990 0.891007
v 0.071020 -0.448401 0.891007
v 0.140291 -0.431771 0.891007
v 0.206106 -0.404508 0.891007
v 0.266849 -0.367286 0.891007
v 0.321020 -0.321020 0.891007
v 0.367286 -0.266849 0.891007
v 0.404508 -0.206107 0.891007
v 0.431771 -0.140291 0.891007
v 0.448401 -0.071020 0.891007
v 0.522499 0.000000 0.852640
v 0.516066 0.081737 0.852640
v 0.496926 0.161461 0.852640
v 0.465550 0.237209 0.852640
v 0.422710 0.307117 0.852640
v 0.369462 0.369462 0.852640
v 0.307117 0.422710 0.852640
v 0.237209 0.465550 0.852640
v 0.161461 0.496926 0.852640
v 0.081737 0.516066 0.852640
v 0.000000 0.522499 0.852640
v -0.081737 0.516066 0.852640
v -0.161461 0.496926 0.852640
v -0.237209 0.465550 0.852640
v -0.307117 0.422710 0.852640
v -0.369462 0.369462 0.852640
v -0.422710 0.307117 0.852640
v -0.465550 0.237209 0.852640
v -0.496926 0.161461 0.852640
v -0.516066 0.081737 0.852640
v -0.522499 0.000000 0.852640
v -0.516066 -0.081737 0.852640
v -0.496926 -0.161461 0.852640
v -0.465550 -0.237209 0.852640
v -0.422710 -0.307117 0.852640
v -0.369462 -0.369462 0.852640
v -0.307117 -0.422710 0.852640
v -0.237209 -0.465550 0.852640
v -0.161461 -0.496926 0.852640
v -0.081737 -0.516066 0.852640
v -0.000000 -0.522499 0.852640
v 0.081737 -0.516066 0.852640
v 0.161461 -0.496926 0.852640
v 0.237209 -0.465550 0.852640
v 0.307117 -0.422710 0.852640
v 0.369462 -0.369462 0.852640
v 0.422710 -0.307117 0.852640
v 0.465550 -0.237209 0.852640
v 0.496926 -0.161461 0.852640
v 0.516066 -0.081737 0.852640
v 0.587785 0.000000 0.809017
v 0.580549 0.091950 0.809017
v 0.559017 0.181636 0.809017
v 0.523720 0.266849 0.809017
v 0.475528 0.345492 0.809017
v 0.415627 0.415627 0.809017
v 0.345492 0.475528 0.809017
v 0.266849 0.523720 0.809017
v 0.181636 0.559017 0.809017
v 0.091950 0.580549 0.809017
v 0.000000 0.587785 0.809017
v -0.091950 0.580549 0.809017
v -0.181636 0.559017 0.809017
v -0.266849 0.523720 0.809017
v -0.345492 0.475528 0.809017
v -0.415627 0.415627 0.809017
v -0.475528 0.345492 0.809017
v -0.523720 0.266849 0.809017
v -0.559017 0.181636 0.809017
v -0.580549 0.091950 0.809017
v -0.587785 0.000000 0.809017
v -0.580549 -0.091950 0.809017
v -0.559017 -0.181636 0.809017
v -0.523720 -0.266849 0.809017
v -0.475528 -0.345492 0.809017
v -0.415627 -0.415627 0.809017
v -0.345492 -0.475528 0.809017
v -0.266849 -0.523720 0.809017
v -0.181636 -0.559017 0.809017
v -0.091950 -0.580549 0.809017
v -0.000000 -0.587785 0.809017
v 0.091950 -0.580549 0.809017
v 0.181636 -0.559017 0.809017
v 0.266849 -0.523720 0.809017
v 0.345492 -0.475528 0.809017
v 0.415627 -0.415627 0.809017
v 0.475528 -0.345492 0.809017
v 0.523720 -0.266849 0.809017
v 0.559017 -0.181636 0.809017
v 0.580549 -0.091950 0.809017
v 0.649448 0.000000 0.760406
v 0.641452 0.101596 0.760406
v 0.617662 0.200690 0.760406
v 0.578662 0.294843 0.760406
v 0.525415 0.381736 0.760406
v 0.459229 0.459229 0.760406
v 0.381736 0.525415 0.760406
v 0.294843 0.578662 0.760406
v 0.200690 0.617662 0.760406
v 0.101596 0.641452 0.760406
v 0.000000 0.649448 0.760406
v -0.101596 0.641452 0.760406
v -0.200690 0.617662 0.760406
v -0.294843 0.578662 0.760406
v -0.381736 0.525415 0.760406
v -0.459229 0.459229 0.760406
v -0.525415 0.381736 0.760406
v -0.578662 0.294843 0.760406
v -0.617662 0.200690 0.760406
v -0.641452 0.101596 0.760406
v -0.649448 0.000000 0.760406
v -0.641452 -0.101596 0.760406
v -0.617662 -0.200690 0.760406
v -0.578662 -0.294843 0.760406
v -0.525415 -0.381736 0.760406
v -0.459229 -0.459229 0.760406
v -0.381736 -0.525415 0.760406
v -0.294843 -0.578662 0.760406
v -0.200690 -0.617662 0.760406
v -0.101596 -0.641452 0.760406
v -0.000000 -0.649448 0.760406
v 0.101596 -0.641452 0.760406
v 0.200690 -0.617662 0.760406
v 0.294843 -0.578662 0.760406
v 0.381736 -0.525415 0.760406
v 0.459229 -0.459229 0.760406
v 0.525415 -0.381736 0.760406
v 0.578662 -0.294843 0.760406
v 0.617662 -0.200690 0.760406
v 0.641452 -0.101596 0.760406
v 0.707107 0.000000 0.707107
v 0.698401 0.110616 0.707107
v 0.672499 0.218508 0.707107
v 0.630037 0.321020 0.707107
v 0.572061 0.415627 0.707107
v 0.500000 0.500000 0.707107
v 0.415627 0.572061 0.707107
v 0.321020 0.630037 0.707107
v 0.218508 0.672499 0.707107
v 0.110616 0.698401 0.707107
v 0.000000 0.707107 0.707107
v -0.110616 0.698401 0.707107
v -0.218508 0.672499 0.707107
v -0.321020 0.630037 0.707107
v -0.415627 0.572061 0.707107
v -0.500000 0.500000 0.707107
v -0.572061 0.415627 0.707107
v -0.630037 0.321020 0.707107
v -0.672499 0.218508 0.707107
v -0.698401 0.110616 0.707107
v -0.707107 0.000000 0.707107
v -0.698401 -0.110616 0.707107
v -0.672499 -0.218508 0.707107
v -0.630037 -0.321020 0.707107
v -0.572061 -0.415627 0.707107
v -0.500000 -0.500000 0.707107
v -0.415627 -0.572061 0.707107
v -0.321020 -0.630037 0.707107
v -0.218508 -0.672499 0.707107
v -0.110616 -0.698401 0.707107
v -0.000000 -0.707107 0.707107
v 0.110616 -0.698401 0.707107
v 0.218508 -0.672499 0.707107
v 0.321020 -0.630037 0.707107
v 0.415627 -0.572061 0.707107
v 0.500000 -0.500000 0.707107
v 0.572061 -0.415627 0.707107
v 0.630037 -0.321020 0.707107
v 0.672499 -0.218508 0.707107
v 0.698401 -0.110616 0.707107
v 0.760406 0.000000 0.649448
v 0.751044 0.118954 0.649448
v 0.723189 0.234978 0.649448
v 0.677527 0.345217 0.649448
v 0.615181 0.446955 0.649448
v 0.537688 0.537688 0.649448
v 0.446955 0.615181 0.649448
v 0.345217 0.677527 0.649448
v 0.234978 0.723189 0.649448
v 0.118954 0.751044 0.649448
v 0.000000 0.760406 0.649448
v -0.118954 0.751044 0.649448
v -0.234978 0.723189 0.649448
v -0.345217 0.677527 0.649448
v -0.446955 0.615181 0.649448
v -0.537688 0.537688 0.649448
v -0.615181 0.446955 0.649448
v -0.677527 0.345217 0.649448
v -0.723189 0.234978 0.649448
v -0.751044 0.118954 0.649448
v -0.760406 0.000000 0.649448
v -0.751044 -0.118954 0.649448
v -0.723189 -0.234978 0.649448
v -0.677527 -0.345217 0.649448
v -0.615181 -0.446955 0.649448
v -0.537688 -0.537688 0.649448
v -0.446955 -0.615181 0.649448
v -0.345218 -0.677527 0.649448
v -0.234978 -0.723189 0.649448
v -0.118954 -0.751044 0.649448
v -0.000000 -0.760406 0.649448
v 0.118954 -0.751044 0.649448
v 0.234978 -0.723189 0.649448
v 0.345217 -0.677527 0.649448
v 0.446955 -0.615181 0.649448
v 0.537688 -0.537688 0.649448
v 0.615181 -0.446955 0.649448
v 0.677527 -0.345217 0.649448
v 0.723189 -0.234978 0.649448
v 0.751044 -0.118954 0.649448
v 0.809017 0.000000 0.587785
v 0.799057 0.126558 0.587785
v 0.769421 0.250000 0.587785
v 0.720839 0.367286 0.587785
v 0.654508 0.475528 0.587785
v 0.572061 0.572061 0.587785
v 0.475528 0.654508 0.587785
v 0.367286 0.720839 0.587785
v 0.250000 0.769421 0.587785
v 0.126558 0.799057 0.587785
v 0.000000 0.809017 0.587785
v -0.126558 0.799057 0.587785
v -0.250000 0.769421 0.587785
v -0.367286 0.720839 0.587785
v -0.475528 0.654508 0.587785
v -0.572061 0.572061 0.587785
v -0.654508 0.475528 0.587785
v -0.720839 0.367286 0.587785
v -0.769421 0.250000 0.587785
v -0.799057 0.126558 0.587785
v -0.809017 0.000000 0.587785
v -0.799057 -0.126558 0.587785
v -0.769421 -0.250000 0.587785
v -0.720839 -0.367286 0.587785
v -0.654508 -0.475528 0.587785
v -0.572061 -0.572061 0.587785
v -0.475528 -0.654508 0.587785
v -0.367286 -0.720839 0.587785
v -0.250000 -0.769421 0.587785
v -0.126558 -0.799057 0.587785
v 0.000000 -0.809017 0.587785
v 0.126558 -0.799057 0.587785
v 0.250000 -0.769421 0.587785
v 0.367286 -0.720839 0.587785
v 0.475528 -0.654508 0.587785
v 0.572061 -0.572061 0.587785
v 0.654508 -0.475528 0.587785
v 0.720839 -0.367286 0.587785
v 0.769421 -0.250000 0.587785
v 0.799057 -0.126558 0.587785
v 0.852640 0.000000 0.522499
v 0.842143 0.133382 0.522499
v 0.810909 0.263480 0.522499
v 0.759708 0.387091 0.522499
v 0.689800 0.501169 0.522499
v 0.602908 0.602908 0.522499
v 0.501169 0.689800 0.522499
v 0.387091 0.759708 0.522499
v 0.263480 0.810909 0.522499
v 0.133382 0.842143 0.522499
v 0.000000 0.852640 0.522499
v -0.133382 0.842143 0.522499
v -0.263480 0.810909 0.522499
v -0.387091 0.759708 0.522499
v -0.501169 0.689800 0.522499
v -0.602908 0.602908 0.522499
v -0.689800 0.501169 0.522499
v -0.759708 0.387091 0.522499
v -0.810910 0.263480 0.522499
v -0.842143 0.133382 0.522499
v -0.852640 0.000000 0.522499
v -0.842143 -0.133382 0.522499
v -0.810909 -0.263480 0.522499
v -0.759708 -0.387091 0.522499
v -0.689800 -0.501169 0.522499
v -0.602908 -0.602908 0.522499
v -0.501169 -0.689800 0.522499
v -0.387091 -0.759708 0.522499
v -0.263480 -0.810909 0.522499
v -0.133382 -0.842143 0.522499
v -0.000000 -0.852640 0.522499
v 0.133382 -0.842143 0.522499
v 0.263480 -0.810909 0.522499
v 0.387091 -0.759708 0.522499
v 0.501169 -0.689800 0.522499
v 0.602908 -0.602908 0.522499
v 0.689800 -0.501169 0.522499
v 0.759708 -0.387091 0.522499
v 0.810909 -0.263480 0.522499
v 0.842143 -0.133382 0.522499
v 0.891007 0.000000 0.453990
v 0.880037 0.139384 0.453990
v 0.847398 0.275336 0.453990
v 0.793893 0.404508 0.453990
v 0.720839 0.523720 0.453990
v 0.630037 0.630037 0.453990
v 0.523720 0.720839 0.453990
v 0.404508 0.793893 0.453990
v 0.275336 0.847398 0.453990
v 0.139384 0.880037 0.453990
v 0.000000 0.891007 0.453990
v -0.139384 0.880037 0.453990
v -0.275336 0.847398 0.453990
v -0.404508 0.793893 0.453990
v -0.523720 0.720839 0.453990
v -0.630037 0.630037 0.453990
v -0.720839 0.523720 0.453990
v -0.793893 0.404508 0.453990
v -0.847398 0.275336 0.453990
v -0.880037 0.139384 0.453990
v -0.891007 0.000000 0.453990
v -0.880037 -0.139384 0.453990
v -0.847398 -0.275336 0.453990
v -0.793893 -0.404508 0.453990
v -0.720839 -0.523720 0.453990
v -0.630037 -0.630037 0.453990
v -0.523720 -0.720839 0.453990
v -0.404508 -0.793893 0.453990
v -0.275336 -0.847398 0.453990
v -0.139384 -0.880037 0.453990
v -0.000000 -0.891007 0.453990
v 0.139384 -0.880037 0.453990
v 0.275336 -0.847398 0.453990
v 0.404508 -0.793893 0.453990
v 0.523720 -0.720839 0.453990
v 0.630037 -0.630037 0.453990
v 0.720839 -0.523720 0.453990
v 0.793893 -0.404508 0.453990
v 0.847398 -0.275336 0.453990
v 0.880037 -0.139384 0.453990
v 0.923880 0.000000 0.382683
v 0.912505 0.144527 0.382683
v 0.878662 0.285494 0.382683
v 0.823183 0.419433 0.382683
v 0.747434 0.543043 0.382683
v 0.653281 0.653281 0.382683
v 0.543043 0.747434 0.382683
v 0.419433 0.823183 0.382683
v 0.285494 0.878662 0.382683
v 0.144527 0.912505 0.382683
v 0.000000 0.923880 0.382683
v -0.144527 0.912505 0.382683
v -0.285494 0.878662 0.382683
v -0.419433 0.823183 0.382683
v -0.543043 0.747434 0.382683
v -0.653281 0.653281 0.382683
v -0.747434 0.543043 0.382683
v -0.823183 0.419433 0.382683
v -0.878662 0.285494 0.382683
v -0.912505 0.144527 0.382683
v -0.923880 0.000000 0.382683
v -0.912505 -0.144527 0.382683
v -0.878662 -0.285494 0.382683
v -0.823183 -0.419433 0.382683
v -0.747434 -0.543043 0.382683
v -0.653281 -0.653281 0.382683
v -0.543043 -0.747434 0.382683
v -0.419433 -0.823183 0.382683
v -0.285494 -0.878662 0.382683
v -0.144528 -0.912505 0.382683
v -0.000000 -0.923880 0.382683
v 0.144527 -0.912505 0.382683
v 0.285494 -0.878662 0.382683
v 0.419433 -0.823183 0.382683
v 0.543043 -0.747434 0.382683
v 0.653281 -0.653281 0.382683
v 0.747434 -0.543043 0.382683
v 0.823183 -0.419433 0.382683
v 0.878662 -0.285494 0.382683
v 0.912505 -0.144527 0.382683
v 0.951057 0.000000 0.309017
v 0.939347 0.148778 0.309017
v 0.904508 0.293893 0.309017
v 0.847398 0.431771 0.309017
v 0.769421 0.559017 0.309017
v 0.672499 0.672499 0.309017
v 0.559017 0.769421 0.309017
v 0.431771 0.847398 0.309017
v 0.293893 0.904508 0.309017
v 0.148778 0.939347 0.309017
v 0.000000 0.951057 0.309017
v -0.148778 0.939347 0.309017
v -0.293893 0.904508 0.309017
v -0.431771 0.847398 0.309017
v -0.559017 0.769421 0.309017
v -0.672499 0.672499 0.309017
v -0.769421 0.559017 0.309017
v -0.847398 0.431771 0.309017
v -0.904508 0.293893 0.309017
v -0.939347 0.148778 0.309017
v -0.951057 0.000000 0.309017
v -0.939347 -0.148778 0.309017
v -0.904508 -0.293893 0.309017
v -0.847398 -0.431771 0.309017
v -0.769421 -0.559017 0.309017
v -0.672499 -0.672499 0.309017
v -0.559017 -0.769421 0.309017
v -0.431771 -0.847398 0.309017
v -0.293893 -0.904508 0.309017
v -0.148778 -0.939347 0.309017
v -0.000000 -0.951057 0.309017
v 0.148778 -0.939347 0.309017
v 0.293893 -0.904508 0.309017
v 0.431771 -0.847398 0.309017
v 0.559017 -0.769421 0.309017
v 0.672499 -0.672499 0.309017
v 0.769421 -0.559017 0.309017
v 0.847398 -0.431771 0.309017
v 0.904508 -0.293893 0.309017
v 0.939347 -0.148778 0.309017
v 0.972370 0.000000 0.233445
v 0.960398 0.152112 0.233445
v 0.924779 0.300479 0.233445
v 0.866388 0.441447 0.233445
v 0.786664 0.571545 0.233445
v 0.687569 0.687569 0.233445
v 0.571545 0.786664 0.233445
v 0.441447 0.866388 0.233445
v 0.300479 0.924779 0.233445
v 0.152112 0.960398 0.233445
v 0.000000 0.972370 0.233445
v -0.152112 0.960398 0.233445
v -0.300480 0.924779 0.233445
v -0.441447 0.866388 0.233445
v -0.571545 0.786664 0.233445
v -0.687569 0.687569 0.233445
v -0.786664 0.571545 0.233445
v -0.866388 0.441447 0.233445
v -0.924779 0.300479 0.233445
v -0.960398 0.152112 0.233445
v -0.972370 0.000000 0.233445
v -0.960398 -0.152112 0.233445
v -0.924779 -0.300479 0.233445
v -0.866388 -0.441447 0.233445
v -0.786664 -0.571545 0.233445
v -0.687569 -0.687569 0.233445
v -0.571545 -0.786664 0.233445
v -0.441447 -0.866388 0.233445
v -0.300479 -0.924779 0.233445
v -0.152112 -0.960398 0.233445
v -0.000000 -0.972370 0.233445
v 0.152112 -0.960398 0.233445
v 0.300479 -0.924779 0.233445
v 0.441447 -0.866388 0.233445
v 0.571545 -0.786664 0.233445
v 0.687569 -0.687569 0.233445
v 0.786664 -0.571545 0.233445
v 0.866388 -0.441447 0.233445
v 0.924779 -0.300479 0.233445
v 0.960398 -0.152112 0.233445
v 0.987688 0.000000 0.156434
v 0.975528 0.154508 0.156434
v 0.939347 0.305212 0.156434
v 0.880037 0.448401 0.156434
v 0.799057 0.580549 0.156434
v 0.698401 0.698401 0.156434
v 0.580549 0.799057 0.156434
v 0.448401 0.880037 0.156434
v 0.305212 0.939347 0.156434
v 0.154508 0.975528 0.156434
v 0.000000 0.987688 0.156434
v -0.154508 0.975528 0.156434
v -0.305212 0.939347 0.156434
v -0.448401 0.880037 0.156434
v -0.580549 0.799057 0.156434
v -0.698401 0.698401 0.156434
v -0.799058 0.580549 0.156434
v -0.880037 0.448401 0.156434
v -0.939347 0.305212 0.156434
v -0.975528 0.154508 0.156434
v -0.987688 0.000000 0.156434
v -0.975528 -0.154508 0.156434
v -0.939347 -0.305212 0.156434
v -0.880037 -0.448401 0.156434
v -0.799057 -0.580549 0.156434
v -0.698401 -0.698401 0.156434
v -0.580549 -0.799057 0.156434
v -0.448401 -0.880037 0.156434
v -0.305212 -0.939347 0.156434
v -0.154508 -0.975528 0.156434
v -0.000000 -0.987688 0.156434
v 0.154508 -0.975528 0.156434
v 0.305212 -0.939347 0.156434
v 0.448401 -0.880037 0.156434
v 0.580549 -0.799057 0.156434
v 0.698401 -0.698401 0.156434
v 0.799057 -0.580549 0.156434
v 0.880037 -0.448401 0.156434
v 0.939347 -0.305212 0.156434
v 0.975528 -0.154508 0.156434
v 0.996917 0.000000 0.078459
v 0.984644 0.155952 0.078459
v 0.948125 0.308064 0.078459
v 0.888260 0.452591 0.078459
v 0.806523 0.585973 0.078459
v 0.704927 0.704927 0.078459
v 0.585972 0.806523 0.078459
v 0.452591 0.888260 0.078459
v 0.308064 0.948125 0.078459
v 0.155952 0.984644 0.078459
v 0.000000 0.996917 0.078459
v -0.155952 0.984644 0.078459
v -0.308064 0.948125 0.078459
v -0.452591 0.888260 0.078459
v -0.585973 0.806523 0.078459
v -0.704927 0.704927 0.078459
v -0.806523 0.585973 0.078459
v -0.888260 0.452591 0.078459
v -0.948125 0.308064 0.078459
v -0.984644 0.155952 0.078459
v -0.996917 0.000000 0.078459
v -0.984644 -0.155952 0.078459
v -0.948125 -0.308064 0.078459
v -0.888260 -0.452591 0.078459
v -0.806523 -0.585973 0.078459
v -0.704927 -0.704927 0.078459
v -0.585973 -0.806523 0.078459
v -0.452591 -0.888260 0.078459
v -0.308064 -0.948125 0.078459
v -0.155952 -0.984644 0.078459
v -0.000000 -0.996917 0.078459
v 0.155952 -0.984644 0.078459
v 0.308064 -0.948125 0.078459
v 0.452591 -0.888260 0.078459
v 0.585973 -0.806523 0.078459
v 0.704927 -0.704927 0.078459
v 0.806523 -0.585973 0.078459
v 0.888260 -0.452591 0.078459
v 0.948125 -0.308064 0.078459
v 0.984644 -0.155952 0.078459
v 1.000000 0.000000 0.000000
v 0.987688 0.156434 0.000000
v 0.951057 0.309017 0.000000
v 0.891007 0.453990 0.000000
v 0.809017 0.587785 0.000000
v 0.707107 0.707107 0.000000
v 0.587785 0.809017 0.000000
v 0.453990 0.891007 0.000000
v 0.309017 0.951057 0.000000
v 0.156434 0.987688 0.000000
v 0.000000 1.000000 0.000000
v -0.156434 0.987688 0.000000
v -0.309017 0.951057 0.000000
v -0.453990 0.891007 0.000000
v -0.587785 0.809017 0.000000
v -0.707107 0.707107 0.000000
v -0.809017 0.587785 0.000000
v -0.891007 0.453990 0.000000
v -0.951057 0.309017 0.000000
v -0.987688 0.156434 0.000000
v -1.000000 0.000000 0.000000
v -0.987688 -0.156434 0.000000
v -0.951057 -0.309017 0.000000
v -0.891007 -0.453990 0.000000
v -0.809017 -0.587785 0.000000
v -0.707107 -0.707107 0.000000
v -0.587785 -0.809017 0.000000
v -0.453990 -0.891007 0.000000
v -0.309017 -0.951057 0.000000
v -0.156434 -0.987688 0.000000
v 0.000000 -1.000000 0.000000
v 0.156434 -0.987688 0.000000
v 0.309017 -0.951057 0.000000
v 0.453990 -0.891007 0.000000
v 0.587785 -0.809017 0.000000
v 0.707107 -0.707107 0.000000
v 0.809017 -0.587785 0.000000
v 0.891007 -0.453990 0.000000
v 0.951057 -0.309017 0.000000
v 0.987688 -0.156434 0.000000
v 0.996917 0.000000 -0.078459
v 0.984644 0.155952 -0.078459
v 0.948125 0.308064 -0.078459
v 0.888260 0.452591 -0.078459
v 0.806523 0.585973 -0.078459
v 0.704927 0.704927 -0.078459
v 0.585973 0.806523 -0.078459
v 0.452591 0.888260 -0.078459
v 0.308064 0.948125 -0.078459
v 0.155952 0.984644 -0.078459
v 0.000000 0.996917 -0.078459
v -0.155952 0.984644 -0.078459
v -0.308064 0.948125 -0.078459
v -0.452591 0.888260 -0.078459
v -0.585973 0.806523 -0.078459
v -0.704927 0.704927 -0.078459
v -0.806523 0.585973 -0.078459
v -0.888260 0.452591 -0.078459
v -0.948126 0.308064 -0.078459
v -0.984644 0.155952 -0.078459
v -0.996917 0.000000 -0.078459
v -0.984644 -0.155952 -0.078459
v -0.948125 -0.308064 -0.078459
v -0.888260 -0.452591 -0.078459
v -0.806523 -0.585973 -0.078459
v -0.704927 -0.704927 -0.078459
v -0.585973 -0.806523 -0.078459
v -0.452591 -0.888260 -0.078459
v -0.308064 -0.948125 -0.078459
v -0.155952 -0.984644 -0.078459
v 0.000001 -0.996917 -0.078459
v 0.155952 -0.984644 -0.078459
v 0.308064 -0.948125 -0.078459
v 0.452591 -0.888260 -0.078459
v 0.585972 -0.806523 -0.078459
v 0.704927 -0.704927 -0.078459
v 0.806523 -0.585973 -0.078459
v 0.888260 -0.452591 -0.078459
v 0.948125 -0.308064 -0.078459
v 0.984644 -0.155952 -0.078459
v 0.987688 0.000000 -0.156434
v 0.975528 0.154508 -0.156434
v 0.939347 0.305212 -0.156434
v 0.880037 0.448401 -0.156434
v 0.799057 0.580549 -0.156434
v 0.698401 0.698401 -0.156434
v 0.580549 0.799057 -0.156434
v 0.448401 0.880037 -0.156434
v 0.305212 0.939347 -0.156434
v 0.154508 0.975528 -0.156434
v 0.000000 0.987688 -0.156434
v -0.154508 0.975528 -0.156434
v -0.305212 0.939347 -0.156434
v -0.448401 0.880037 -0.156434
v -0.580549 0.799057 -0.156434
v -0.698401 0.698401 -0.156434
v -0.799057 0.580549 -0.156434
v -0.880037 0.448401 -0.156434
v -0.939347 0.305212 -0.156434
v -0.975528 0.154508 -0.156434
v -0.987688 0.000000 -0.156434
v -0.975528 -0.154508 -0.156434
v -0.939347 -0.305212 -0.156434
v -0.880037 -0.448401 -0.156434
v -0.799057 -0.580549 -0.156434
v -0.698401 -0.698401 -0.156434
v -0.580549 -0.799057 -0.156434
v -0.448401 -0.880037 -0.156434
v -0.305212 -0.939347 -0.156434
v -0.154508 -0.975528 -0.156434
v -0.000000 -0.987688 -0.156434
v 0.154508 -0.975528 -0.156434
v 0.305212 -0.939347 -0.156434
v 0.448401 -0.880037 -0.156434
v 0.580549 -0.799057 -0.156434
v 0.698401 -0.698401 -0.156434
v 0.799057 -0.580549 -0.156434
v 0.880037 -0.448401 -0.156434
v 0.939347 -0.305212 -0.156434
v 0.975528 -0.154508 -0.156434
v 0.972370 0.000000 -0.233445
v 0.960398 0.152112 -0.233445
v 0.924779 0.300479 -0.233445
v 0.866388 0.441447 -0.233445
v 0.786664 0.571545 -0.233445
v 0.687569 0.687569 -0.233445
v 0.571545 0.786664 -0.233445
v 0.441447 0.866388 -0.233445
v 0.300479 0.924779 -0.233445
v 0.152112 0.960398 -0.233445
v 0.000000 0.972370 -0.233445
v -0.152112 0.960398 -0.233445
v -0.300479 0.924779 -0.233445
v -0.441447 0.866388 -0.233445
v -0.571545 0.786664 -0.233445
v -0.687569 0.687569 -0.233445
v -0.786664 0.571545 -0.233445
v -0.866388 0.441447 -0.233445
v -0.924779 0.300479 -0.233445
v -0.960398 0.152112 -0.233445
v -0.972370 0.000000 -0.233445
v -0.960398 -0.152112 -0.233445
v -0.924780 -0.300479 -0.233445
v -0.866388 -0.441447 -0.233445
v -0.786664 -0.571545 -0.233445
v -0.687569 -0.687569 -0.233445
v -0.571545 -0.786664 -0.233445
v -0.441447 -0.866388 -0.233445
v -0.300479 -0.924779 -0.233445
v -0.152112 -0.960398 -0.233445
v -0.000000 -0.972370 -0.233445
v 0.152112 -0.960398 -0.233445
v 0.300479 -0.924779 -0.233445
v 0.441447 -0.866388 -0.233445
v 0.571545 -0.786664 -0.233445
v 0.687569 -0.687569 -0.233445
v 0.786664 -0.571545 -0.233445
v 0.866388 -0.441447 -0.233445
v 0.924779 -0.300479 -0.233445
v 0.960398 -0.152112 -0.233445
v 0.951057 0.000000 -0.309017
v 0.939347 0.148778 -0.309017
v 0.904508 0.293893 -0.309017
v 0.847398 0.431771 -0.309017
v 0.769421 0.559017 -0.309017
v 0.672499 0.672499 -0.309017
v 0.559017 0.769421 -0.309017
v 0.431771 0.847398 -0.309017
v 0.293893 0.904508 -0.309017
v 0.148778 0.939347 -0.309017
v 0.000000 0.951057 -0.309017
v -0.148778 0.939347 -0.309017
v -0.293893 0.904508 -0.309017
v -0.431771 0.847398 -0.309017
v -0.559018 0.769421 -0.309017
v -0.672499 0.672499 -0.309017
v -0.769421 0.559017 -0.309017
v -0.847398 0.431771 -0.309017
v -0.904508 0.293893 -0.309017
v -0.939347 0.148778 -0.309017
v -0.951058 0.000000 -0.309017
v -0.939347 -0.148778 -0.309017
v -0.904508 -0.293893 -0.309017
v -0.847398 -0.431771 -0.309017
v -0.769421 -0.559017 -0.309017
v -0.672499 -0.672499 -0.309017
v -0.559017 -0.769421 -0.309017
v -0.431771 -0.847398 -0.309017
v -0.293893 -0.904508 -0.309017
v -0.148778 -0.939347 -0.309017
v -0.000000 -0.951057 -0.309017
v 0.148778 -0.939347 -0.309017
v 0.293893 -0.904508 -0.309017
v 0.431771 -0.847398 -0.309017
v 0.559017 -0.769421 -0.309017
v 0.672499 -0.672499 -0.309017
v 0.769421 -0.559017 -0.309017
v 0.847398 -0.431771 -0.309017
v 0.904508 -0.293893 -0.309017
v 0.939347 -0.148778 -0.309017
v 0.923880 0.000000 -0.382683
v 0.912505 0.144527 -0.382683
v 0.878662 0.285494 -0.382683
v 0.823183 0.419433 -0.382683
v 0.747434 0.543043 -0.382683
v 0.653281 0.653281 -0.382683
v 0.543043 0.747434 -0.382683
v 0.419433 0.823183 -0.382683
v 0.285494 0.878662 -0.382683
v 0.144527 0.912505 -0.382683
v 0.000000 0.923880 -0.382683
v -0.144527 0.912505 -0.382683
v -0.285494 0.878662 -0.382683
v -0.419433 0.823183 -0.382683
v -0.543043 0.747434 -0.382683
v -0.653281 0.653281 -0.382683
v -0.747434 0.543043 -0.382683
v -0.823183 0.419433 -0.382683
v -0.878662 0.285494 -0.382683
v -0.912505 0.144527 -0.382683
v -0.923880 0.000000 -0.382683
v -0.912505 -0.144527 -0.382683
v -0.878662 -0.285494 -0.382683
v -0.823183 -0.419433 -0.382683
v -0.747434 -0.543043 -0.382683
v -0.653281 -0.653281 -0.382683
v -0.543043 -0.747434 -0.382683
v -0.419433 -0.823183 -0.382683
v -0.285494 -0.878662 -0.382683
v -0.144527 -0.912505 -0.382683
v -0.000000 -0.923880 -0.382683
v 0.144527 -0.912505 -0.382683
v 0.285494 -0.878662 -0.382683
v 0.419433 -0.823183 -0.382683
v 0.543043 -0.747434 -0.382683
v 0.653281 -0.653281 -0.382683
v 0.747434 -0.543043 -0.382683
v 0.823183 -0.419433 -0.382683
v 0.878662 -0.285494 -0.382683
v 0.912505 -0.144527 -0.382683
v 0.891007 0.000000 -0.453990
v 0.880037 0.139384 -0.453990
v 0.847398 0.275336 -0.453990
v 0.793892 0.404508 -0.453990
v 0.720839 0.523720 -0.453990
v 0.630037 0.630037 -0.453990
v 0.523720 0.720839 -0.453990
v 0.404508 0.793893 -0.453990
v 0.275336 0.847398 -0.453990
v 0.139384 0.880037 -0.453990
v 0.000000 0.891007 -0.453990
v -0.139384 0.880037 -0.453990
v -0.275336 0.847398 -0.453990
v -0.404508 0.793893 -0.453990
v -0.523720 0.720839 -0.453990
v -0.630037 0.630037 -0.453990
v -0.720840 0.523720 -0.453990
v -0.793893 0.404508 -0.453990
v -0.847398 0.275336 -0.453990
v -0.880037 0.139384 -0.453990
v -0.891007 0.000000 -0.453990
v -0.880037 -0.139384 -0.453990
v -0.847398 -0.275336 -0.453990
v -0.793893 -0.404508 -0.453990
v -0.720839 -0.523720 -0.453990
v -0.630037 -0.630037 -0.453990
v -0.523720 -0.720839 -0.453990
v -0.404508 -0.793893 -0.453990
v -0.275336 -0.847398 -0.453990
v -0.139384 -0.880037 -0.453990
v -0.000000 -0.891007 -0.453990
v 0.139384 -0.880037 -0.453990
v 0.275336 -0.847398 -0.453990
v 0.404508 -0.793893 -0.453990
v 0.523721 -0.720839 -0.453990
v 0.630037 -0.630037 -0.453990
v 0.720839 -0.523720 -0.453990
v 0.793893 -0.404508 -0.453990
v 0.847398 -0.275336 -0.453990
v 0.880037 -0.139384 -0.453990
v 0.852640 0.000000 -0.522499
v 0.842143 0.133382 -0.522499
v 0.810909 0.263480 -0.522499
v 0.759708 0.387091 -0.522499
v 0.689800 0.501169 -0.522499
v 0.602908 0.602908 -0.522499
v 0.501169 0.689800 -0.522499
v 0.387091 0.759708 -0.522499
v 0.263480 0.810909 -0.522499
v 0.133382 0.842143 -0.522499
v 0.000000 0.852640 -0.522499
v -0.133382 0.842143 -0.522499
v -0.263480 0.810909 -0.522499
v -0.387091 0.759708 -0.522499
v -0.501169 0.689800 -0.522499
v -0.602908 0.602908 -0.522499
v -0.689800 0.501169 -0.522499
v -0.759708 0.387091 -0.522499
v -0.810909 0.263480 -0.522499
v -0.842143 0.133382 -0.522499
v -0.852640 0.000000 -0.522499
v -0.842143 -0.133382 -0.522499
v -0.810909 -0.263480 -0.522499
v -0.759708 -0.387091 -0.522499
v -0.689800 -0.501169 -0.522499
v -0.602908 -0.602908 -0.522499
v -0.501169 -0.689800 -0.522499
v -0.387091 -0.759708 -0.522499
v -0.263480 -0.810909 -0.522499
v -0.133382 -0.842143 -0.522499
v -0.000000 -0.852640 -0.522499
v 0.133382 -0.842143 -0.522499
v 0.263480 -0.810909 -0.522499
v 0.387091 -0.759708 -0.522499
v 0.501169 -0.689800 -0.522499
v 0.602908 -0.602908 -0.522499
v 0.689800 -0.501169 -0.522499
v 0.759708 -0.387091 -0.522499
v 0.810909 -0.263480 -0.522499
v 0.842143 -0.133382 -0.522499
v 0.809017 0.000000 -0.587785
v 0.799057 0.126558 -0.587785
v 0.769421 0.250000 -0.587785
v 0.720839 0.367286 -0.587785
v 0.654508 0.475528 -0.587785
v 0.572061 0.572061 -0.587785
v 0.475528 0.654508 -0.587785
v 0.367286 0.720839 -0.587785
v 0.250000 0.769421 -0.587785
v 0.126558 0.799057 -0.587785
v 0.000000 0.809017 -0.587785
v -0.126558 0.799057 -0.587785
v -0.250000 0.769421 -0.587785
v -0.367286 0.720839 -0.587785
v -0.475528 0.654508 -0.587785
v -0.572061 0.572061 -0.587785
v -0.654508 0.475528 -0.587785
v -0.720839 0.367286 -0.587785
v -0.769421 0.250000 -0.587785
v -0.799057 0.126558 -0.587785
v -0.809017 0.000000 -0.587785
v -0.799057 -0.126558 -0.587785
v -0.769421 -0.250000 -0.587785
v -0.720839 -0.367286 -0.587785
v -0.654508 -0.475528 -0.587785
v -0.572061 -0.572061 -0.587785
v -0.475528 -0.654508 -0.587785
v -0.367286 -0.720839 -0.587785
v -0.250000 -0.769421 -0.587785
v -0.126558 -0.799057 -0.587785
v -0.000000 -0.809017 -0.587785
v 0.126558 -0.799057 -0.587785
v 0.250000 -0.769421 -0.587785
v 0.367286 -0.720839 -0.587785
v 0.475528 -0.654508 -0.587785
v 0.572061 -0.572061 -0.587785
v 0.654508 -0.475528 -0.587785
v 0.720839 -0.367286 -0.587785
v 0.769421 -0.250000 -0.587785
v 0.799057 -0.126558 -0.587785
v 0.760406 0.000000 -0.649448
v 0.751044 0.118954 -0.649448
v 0.723189 0.234978 -0.649448
v 0.677527 0.345217 -0.649448
v 0.615181 0.446955 -0.649448
v 0.537688 0.537688 -0.649448
v 0.446955 0.615181 -0.649448
v 0.345217 0.677527 -0.649448
v 0.234978 0.723189 -0.649448
v 0.118954 0.751044 -0.649448
v 0.000000 0.760406 -0.649448
v -0.118954 0.751044 -0.649448
v -0.234978 0.723189 -0.649448
v -0.345217 0.677527 -0.649448
v -0.446955 0.615181 -0.649448
v -0.537688 0.537688 -0.649448
v -0.615181 0.446955 -0.649448
v -0.677527 0.345217 -0.649448
v -0.723189 0.234978 -0.649448
v -0.751044 0.118954 -0.649448
v -0.760406 0.000000 -0.649448
v -0.751044 -0.118954 -0.649448
v -0.723190 -0.234978 -0.649448
v -0.677527 -0.345217 -0.649448
v -0.615181 -0.446955 -0.649448
v -0.537688 -0.537688 -0.649448
v -0.446955 -0.615181 -0.649448
v -0.345218 -0.677527 -0.649448
v -0.234977 -0.723189 -0.649448
v -0.118954 -0.751044 -0.649448
v -0.000000 -0.760406 -0.649448
v 0.118954 -0.751044 -0.649448
v 0.234978 -0.723189 -0.649448
v 0.345217 -0.677527 -0.649448
v 0.446955 -0.615181 -0.649448
v 0.537688 -0.537688 -0.649448
v 0.615180 -0.446955 -0.649448
v 0.677526 -0.345217 -0.649448
v 0.723189 -0.234978 -0.649448
v 0.751044 -0.118954 -0.649448
v 0.707107 0.000000 -0.707107
v 0.698401 0.110616 -0.707107
v 0.672499 0.218508 -0.707107
v 0.630037 0.321020 -0.707107
v 0.572061 0.415627 -0.707107
v 0.500000 0.500000 -0.707107
v 0.415627 0.572061 -0.707107
v 0.321020 0.630037 -0.707107
v 0.218508 0.672499 -0.707107
v 0.110616 0.698401 -0.707107
v 0.000000 0.707107 -0.707107
v -0.110616 0.698401 -0.707107
v -0.218508 0.672499 -0.707107
v -0.321020 0.630037 -0.707107
v -0.415627 0.572061 -0.707107
v -0.500000 0.500000 -0.707107
v -0.572061 0.415627 -0.707107
v -0.630037 0.321020 -0.707107
v -0.672499 0.218508 -0.707107
v -0.698401 0.110616 -0.707107
v -0.707108 0.000000 -0.707107
v -0.698401 -0.110616 -0.707107
v -0.672499 -0.218508 -0.707107
v -0.630037 -0.321020 -0.707107
v -0.572061 -0.415627 -0.707107
v -0.500000 -0.500000 -0.707107
v -0.415628 -0.572061 -0.707107
v -0.321020 -0.630037 -0.707107
v -0.218508 -0.672499 -0.707107
v -0.110616 -0.698401 -0.707107
v -0.000000 -0.707107 -0.707107
v 0.110616 -0.698401 -0.707107
v 0.218508 -0.672499 -0.707107
v 0.321020 -0.630037 -0.707107
v 0.415627 -0.572061 -0.707107
v 0.500000 -0.500000 -0.707107
v 0.572061 -0.415627 -0.707107
v 0.630037 -0.321020 -0.707107
v 0.672499 -0.218508 -0.707107
v 0.698401 -0.110616 -0.707107
v 0.649448 0.000000 -0.760406
v 0.641452 0.101596 -0.760406
v 0.617662 0.200690 -0.760406
v 0.578662 0.294843 -0.760406
v 0.525415 0.381736 -0.760406
v 0.459229 0.459229 -0.760406
v 0.381736 0.525415 -0.760406
v 0.294843 0.578662 -0.760406
v 0.200690 0.617662 -0.760406
v 0.101596 0.641452 -0.760406
v 0.000000 0.649448 -0.760406
v -0.101596 0.641452 -0.760406
v -0.200690 0.617662 -0.760406
v -0.294843 0.578662 -0.760406
v -0.381736 0.525415 -0.760406
v -0.459229 0.459229 -0.760406
v -0.525415 0.381736 -0.760406
v -0.578662 0.294843 -0.760406
v -0.617662 0.200690 -0.760406
v -0.641452 0.101596 -0.760406
v -0.649448 0.000000 -0.760406
v -0.641452 -0.101596 -0.760406
v -0.617662 -0.200690 -0.760406
v -0.578662 -0.294843 -0.760406
v -0.525415 -0.381736 -0.760406
v -0.459229 -0.459229 -0.760406
v -0.381736 -0.525415 -0.760406
v -0.294843 -0.578662 -0.760406
v -0.200690 -0.617662 -0.760406
v -0.101596 -0.641452 -0.760406
v -0.000000 -0.649448 -0.760406
v 0.101596 -0.641452 -0.760406
v 0.200690 -0.617662 -0.760406
v 0.294843 -0.578662 -0.760406
v 0.381736 -0.525415 -0.760406
v 0.459229 -0.459229 -0.760406
v 0.525415 -0.381736 -0.760406
v 0.578662 -0.294843 -0.760406
v 0.617662 -0.200690 -0.760406
v 0.641452 -0.101596 -0.760406
v 0.587785 0.000000 -0.809017
v 0.580549 0.091950 -0.809017
v 0.559017 0.181636 -0.809017
v 0.523720 0.266849 -0.809017
v 0.475528 0.345492 -0.809017
v 0.415627 0.415627 -0.809017
v 0.345492 0.475528 -0.809017
v 0.266849 0.523720 -0.809017
v 0.181636 0.559017 -0.809017
v 0.091950 0.580549 -0.809017
v 0.000000 0.587785 -0.809017
v -0.091950 0.580549 -0.809017
v -0.181636 0.559017 -0.809017
v -0.266849 0.523720 -0.809017
v -0.345492 0.475528 -0.809017
v -0.415627 0.415627 -0.809017
v -0.475528 0.345492 -0.809017
v -0.523720 0.266849 -0.809017
v -0.559017 0.181636 -0.809017
v -0.580549 0.091950 -0.809017
v -0.587785 0.000000 -0.809017
v -0.580549 -0.091950 -0.809017
v -0.559017 -0.181636 -0.809017
v -0.523720 -0.266849 -0.809017
v -0.475528 -0.345492 -0.809017
v -0.415627 -0.415627 -0.809017
v -0.345492 -0.475528 -0.809017
v -0.266849 -0.523720 -0.809017
v -0.181636 -0.559017 -0.809017
v -0.091950 -0.580549 -0.809017
v -0.000000 -0.587785 -0.809017
v 0.091950 -0.580549 -0.809017
v 0.181636 -0.559017 -0.809017
v 0.266849 -0.523720 -0.809017
v 0.345492 -0.475528 -0.809017
v 0.415627 -0.415627 -0.809017
v 0.475528 -0.345492 -0.809017
v 0.523720 -0.266849 -0.809017
v 0.559017 -0.181636 -0.809017
v 0.580549 -0.091950 -0.809017
v 0.522499 0.000000 -0.852640
v 0.516066 0.081737 -0.852640
v 0.496926 0.161461 -0.852640
v 0.465550 0.237209 -0.852640
v 0.422710 0.307117 -0.852640
v 0.369463 0.369462 -0.852640
v 0.307117 0.422710 -0.852640
v 0.237209 0.465550 -0.852640
v 0.161461 0.496926 -0.852640
v 0.081737 0.516066 -0.852640
v 0.000000 0.522499 -0.852640
v -0.081737 0.516066 -0.852640
v -0.161461 0.496926 -0.852640
v -0.237209 0.465550 -0.852640
v -0.307117 0.422710 -0.852640
v -0.369462 0.369462 -0.852640
v -0.422710 0.307117 -0.852640
v -0.465550 0.237209 -0.852640
v -0.496926 0.161461 -0.852640
v -0.516066 0.081737 -0.852640
v -0.522499 0.000000 -0.852640
v -0.516066 -0.081737 -0.852640
v -0.496926 -0.161461 -0.852640
v -0.465550 -0.237209 -0.852640
v -0.422710 -0.307117 -0.852640
v -0.369462 -0.369462 -0.852640
v -0.307117 -0.422710 -0.852640
v -0.237209 -0.465550 -0.852640
v -0.161461 -0.496926 -0.852640
v -0.081737 -0.516066 -0.852640
v -0.000000 -0.522499 -0.852640
v 0.081737 -0.516066 -0.852640
v 0.161461 -0.496926 -0.852640
v 0.237209 -0.465550 -0.852640
v 0.307117 -0.422710 -0.852640
v 0.369462 -0.369462 -0.852640
v 0.422710 -0.307117 -0.852640
v 0.465550 -0.237209 -0.852640
v 0.496926 -0.161461 -0.852640
v 0.516066 -0.081737 -0.852640
v 0.453990 0.000000 -0.891007
v 0.448401 0.071020 -0.891007
v 0.431771 0.140291 -0.891007
v 0.404508 0.206107 -0.891007
v 0.367286 0.266849 -0.891007
v 0.321020 0.321020 -0.891007
v 0.266849 0.367286 -0.891007
v 0.206107 0.404508 -0.891007
v 0.140291 0.431771 -0.891007
v 0.071020 0.448401 -0.891007
v 0.000000 0.453990 -0.891007
v -0.071020 0.448401 -0.891007
v -0.140291 0.431771 -0.891007
v -0.206107 0.404508 -0.891007
v -0.266849 0.367286 -0.891007
v -0.321020 0.321020 -0.891007
v -0.367286 0.266849 -0.891007
v -0.404508 0.206107 -0.891007
v -0.431771 0.140291 -0.891007
v -0.448401 0.071020 -0.891007
v -0.453990 0.000000 -0.891007
v -0.448401 -0.071020 -0.891007
v -0.431771 -0.140291 -0.891007
v -0.404508 -0.206107 -0.891007
v -0.367286 -0.266849 -0.891007
v -0.321020 -0.321020 -0.891007
v -0.266849 -0.367286 -0.891007
v -0.206107 -0.404508 -0.891007
v -0.140291 -0.431771 -0.891007
v -0.071019 -0.448401 -0.891007
v -0.000000 -0.453990 -0.891007
v 0.071020 -0.448401 -0.891007
v 0.140291 -0.431771 -0.891007
v 0.206107 -0.404508 -0.891007
v 0.266849 -0.367286 -0.891007
v 0.321020 -0.321020 -0.891007
v 0.367286 -0.266849 -0.891007
v 0.404508 -0.206107 -0.891007
v 0.431771 -0.140291 -0.891007
v 0.448401 -0.071020 -0.891007
v 0.382683 0.000000 -0.923880
v 0.377972 0.059865 -0.923880
v 0.363954 0.118256 -0.923880
v 0.340973 0.173735 -0.923880
v 0.309597 0.224936 -0.923880
v 0.270598 0.270598 -0.923880
v 0.224936 0.309597 -0.923880
v 0.173735 0.340973 -0.923880
v 0.118256 0.363954 -0.923880
v 0.059865 0.377972 -0.923880
v 0.000000 0.382683 -0.923880
v -0.059865 0.377972 -0.923880
v -0.118256 0.363954 -0.923880
v -0.173735 0.340973 -0.923880
v -0.224936 0.309597 -0.923880
v -0.270598 0.270598 -0.923880
v -0.309597 0.224936 -0.923880
v -0.340973 0.173735 -0.923880
v -0.363954 0.118256 -0.923880
v -0.377972 0.059865 -0.923880
v -0.382683 0.000000 -0.923880
v -0.377972 -0.059865 -0.923880
v -0.363954 -0.118256 -0.923880
v -0.340973 -0.173735 -0.923880
v -0.309597 -0.224936 -0.923880
v -0.270598 -0.270598 -0.923880
v -0.224936 -0.309597 -0.923880
v -0.173735 -0.340973 -0.923880
v -0.118256 -0.363954 -0.923880
v -0.059865 -0.377972 -0.923880
v 0.000000 -0.382683 -0.923880
v 0.059865 -0.377972 -0.923880
v 0.118256 -0.363954 -0.923880
v 0.173735 -0.340973 -0.923880
v 0.224936 -0.309597 -0.923880
v 0.270598 -0.270598 -0.923880
v 0.309597 -0.224936 -0.923880
v 0.340973 -0.173735 -0.923880
v 0.363954 -0.118256 -0.923880
v 0.377972 -0.059865 -0.923880
v 0.309017 0.000000 -0.951057
v 0.305212 0.048341 -0.951057
v 0.293893 0.095492 -0.951057
v 0.275336 0.140291 -0.951057
v 0.250000 0.181636 -0.951057
v 0.218508 0.218508 -0.951057
v 0.181636 0.250000 -0.951057
v 0.140291 0.275336 -0.951057
v 0.095492 0.293893 -0.951057
v 0.048341 0.305212 -0.951057
v 0.000000 0.309017 -0.951057
v -0.048341 0.305212 -0.951057
v -0.095492 0.293893 -0.951057
v -0.140291 0.275336 -0.951057
v -0.181636 0.250000 -0.951057
v -0.218508 0.218508 -0.951057
v -0.250000 0.181636 -0.951057
v -0.275336 0.140291 -0.951057
v -0.293893 0.095492 -0.951057
v -0.305212 0.048341 -0.951057
v -0.309017 0.000000 -0.951057
v -0.305212 -0.048341 -0.951057
v -0.293893 -0.095492 -0.951057
v -0.275336 -0.140291 -0.951057
v -0.250000 -0.181636 -0.951057
v -0.218508 -0.218508 -0.951057
v -0.181636 -0.250000 -0.951057
v -0.140291 -0.275336 -0.951057
v -0.095492 -0.293893 -0.951057
v -0.048341 -0.305212 -0.951057
v -0.000000 -0.309017 -0.951057
v 0.048341 -0.305212 -0.951057
v 0.095492 -0.293893 -0.951057
v 0.140291 -0.275336 -0.951057
v 0.181636 -0.250000 -0.951057
v 0.218508 -0.218508 -0.951057
v 0.250000 -0.181636 -0.951057
v 0.275336 -0.140291 -0.951057
v 0.293893 -0.095492 -0.951057
v 0.305212 -0.048341 -0.951057
v 0.233445 0.000000 -0.972370
v 0.230571 0.036519 -0.972370
v 0.222020 0.072139 -0.972370
v 0.208001 0.105982 -0.972370
v 0.188861 0.137216 -0.972370
v 0.165071 0.165071 -0.972370
v 0.137216 0.188861 -0.972370
v 0.105982 0.208001 -0.972370
v 0.072139 0.222020 -0.972370
v 0.036519 0.230571 -0.972370
v 0.000000 0.233445 -0.972370
v -0.036519 0.230571 -0.972370
v -0.072139 0.222020 -0.972370
v -0.105982 0.208001 -0.972370
v -0.137216 0.188861 -0.972370
v -0.165071 0.165071 -0.972370
v -0.188861 0.137216 -0.972370
v -0.208001 0.105982 -0.972370
v -0.222020 0.072139 -0.972370
v -0.230571 0.036519 -0.972370
v -0.233445 0.000000 -0.972370
v -0.230571 -0.036519 -0.972370
v -0.222020 -0.072139 -0.972370
v -0.208001 -0.105982 -0.972370
v -0.188861 -0.137216 -0.972370
v -0.165071 -0.165071 -0.972370
v -0.137216 -0.188861 -0.972370
v -0.105982 -0.208001 -0.972370
v -0.072139 -0.222020 -0.972370
v -0.036519 -0.230571 -0.972370
v -0.000000 -0.233445 -0.972370
v 0.036519 -0.230571 -0.972370
v 0.072139 -0.222020 -0.972370
v 0.105982 -0.208001 -0.972370
v 0.137217 -0.188861 -0.972370
v 0.165071 -0.165071 -0.972370
v 0.188861 -0.137216 -0.972370
v 0.208001 -0.105982 -0.972370
v 0.222020 -0.072139 -0.972370
v 0.230571 -0.036519 -0.972370
v 0.156434 0.000000 -0.987688
v 0.154508 0.024472 -0.987688
v 0.148778 0.048341 -0.987688
v 0.139384 0.071020 -0.987688
v 0.126558 0.091950 -0.987688
v 0.110616 0.110616 -0.987688
v 0.091950 0.126558 -0.987688
v 0.071020 0.139384 -0.987688
v 0.048341 0.148778 -0.987688
v 0.024472 0.154508 -0.987688
v 0.000000 0.156434 -0.987688
v -0.024472 0.154508 -0.987688
v -0.048342 0.148778 -0.987688
v -0.071020 0.139384 -0.987688
v -0.091950 0.126558 -0.987688
v -0.110616 0.110616 -0.987688
v -0.126558 0.091950 -0.987688
v -0.139384 0.071020 -0.987688
v -0.148778 0.048341 -0.987688
v -0.154508 0.024472 -0.987688
v -0.156434 0.000000 -0.987688
v -0.154508 -0.024472 -0.987688
v -0.148778 -0.048341 -0.987688
v -0.139384 -0.071020 -0.987688
v -0.126558 -0.091950 -0.987688
v -0.110616 -0.110616 -0.987688
v -0.091950 -0.126558 -0.987688
v -0.071020 -0.139384 -0.987688
v -0.048341 -0.148778 -0.987688
v -0.024472 -0.154508 -0.987688
v -0.000000 -0.156434 -0.987688
v 0.024472 -0.154508 -0.987688
v 0.048341 -0.148778 -0.987688
v 0.071020 -0.139384 -0.987688
v 0.091950 -0.126558 -0.987688
v 0.110616 -0.110616 -0.987688
v 0.126558 -0.091950 -0.987688
v 0.139384 -0.071020 -0.987688
v 0.148778 -0.048341 -0.987688
v 0.154508 -0.024472 -0.987688
v 0.078459 0.000000 -0.996917
v 0.077493 0.012274 -0.996917
v 0.074619 0.024245 -0.996917
v 0.069908 0.035620 -0.996917
v 0.063475 0.046117 -0.996917
v 0.055479 0.055479 -0.996917
v 0.046117 0.063475 -0.996917
v 0.035620 0.069908 -0.996917
v 0.024245 0.074619 -0.996917
v 0.012274 0.077493 -0.996917
v 0.000000 0.078459 -0.996917
v -0.012274 0.077493 -0.996917
v -0.024245 0.074619 -0.996917
v -0.035620 0.069908 -0.996917
v -0.046117 0.063475 -0.996917
v -0.055479 0.055479 -0.996917
v -0.063476 0.046117 -0.996917
v -0.069908 0.035620 -0.996917
v -0.074619 0.024245 -0.996917
v -0.077493 0.012274 -0.996917
v -0.078459 0.000000 -0.996917
v -0.077494 -0.012274 -0.996917
v -0.074619 -0.024245 -0.996917
v -0.069908 -0.035620 -0.996917
v -0.063475 -0.046117 -0.996917
v -0.055479 -0.055479 -0.996917
v -0.046117 -0.063475 -0.996917
v -0.035620 -0.069908 -0.996917
v -0.024245 -0.074619 -0.996917
v -0.012274 -0.077493 -0.996917
v -0.000000 -0.078459 -0.996917
v 0.012274 -0.077493 -0.996917
v 0.024245 -0.074619 -0.996917
v 0.035620 -0.069908 -0.996917
v 0.046117 -0.063475 -0.996917
v 0.055479 -0.055479 -0.996917
v 0.063475 -0.046117 -0.996917
v 0.069908 -0.035620 -0.996917
v 0.074619 -0.024245 -0.996917
v 0.077493 -0.012274 -0.996917
v 0.000000 0.000000 -1.000000
v 0.000000 0.000000 -1.000000
v 0.000000 0.000000 -1.000000
v 0.000000 0.000000 -1.000000
v 0.000000 0.000000 -1.000000
v 0.000000 0.000000 -1.000000
v 0.000000 0.000000 -1.000000
v 0.000000 0.000000 -1.000000
v 0.000000 0.000000 -1.000000
v 0.000000 0.000000 -1.000000
v 0.000000 0.000000 -1.000000
v -0.000000 0.000000 -1.000000
v -0.000000 0.000000 -1.000000
v -0.000000 0.000000 -1.000000
v -0.000000 0.000000 -1.000000
v -0.000000 0.000000 -1.000000
v -0.000000 0.000000 -1.000000
v -0.000000 0.000000 -1.000000
v -0.000000 0.000000 -1.000000
v 0.000001 0.000000 -1.000000
v -0.000000 0.000000 -1.000000
v -0.000000 -0.000000 -1.000000
v -0.000000 -0.000000 -1.000000
v -0.000000 -0.000000 -1.000000
v -0.000000 -0.000000 -1.000000
v -0.000000 -0.000000 -1.000000
v -0.000000 -0.000000 -1.000000
v 0.000000 -0.000000 -1.000000
v -0.000000 -0.000000 -1.000000
v -0.000000 -0.000000 -1.000000
v -0.000000 -0.000000 -1.000000
v 0.000000 -0.000000 -1.000000
v 0.000000 -0.000000 -1.000000
v 0.000000 -0.000000 -1.000000
v 0.000000 -0.000000 -1.000000
v 0.000000 -0.000000 -1.000000
v 0.000000 -0.000000 -1.000000
v 0.000000 -0.000000 -1.000000
v 0.000000 -0.000000 -1.000000
v 0.000000 -0.000000 -1.000000
f 1 2 42 41
f 2 3 43 42
f 3 4 44 43
f 4 5 45 44
f 5 6 46 45
f 6 7 47 46
f 7 8 48 47
f 8 9 49 48
f 9 10 50 49
f 10 11 51 50
f 11 12 52 51
f 12 13 53 52
f 13 14 54 53
f 14 15 55 54
f 15 16 56 55
f 16 17 57 56
f 17 18 58 57
f 18 19 59 58
f 19 20 60 59
f 20 21 61 60
f 21 22 62 61
f 22 23 63 62
f 23 24 64 63
f 24 25 65 64
f 25 26 66 65
f 26 27 67 66
f 27 28 68 67
f 28 29 69 68
f 29 30 70 69
f 30 31 71 70
f 31 32 72 71
f 32 33 73 72
f 33 34 74 73
f 34 35 75 74
f 35 36 76 75
f 36 37 77 76
f 37 38 78 77
f 38 39 79 78
f 39 40 80 79
f 40 1 41 80
f 41 42 82 81
f 42 43 83 82
f 43 44 84 83
f 44 45 85 84
f 45 46 86 85
f 46 47 87 86
f 47 48 88 87
f 48 49 89 88
f 49 50 90 89
f 50 51 91 90
f 51 52 92 91
f 52 53 93 92
f 53 54 94 93
f 54 55 95 94
f 55 56 96 95
f 56 57 97 96
f 57 58 98 97
f 58 59 99 98
f 59 60 100 99
f 60 61 101 100
f 61 62 102 101
f 62 63 103 102
f 63 64 104 103
f 64 65 105 104
f 65 66 106 105
f 66 67 107 106
f 67 68 108 107
f 68 69 109 108
f 69 70 110 109
f 70 71 111 110
f 71 72 112 111
f 72 73 113 112
f 73 74 114 113
f 74 75 115 114
f 75 76 116 115
f 76 77 117 116
f 77 78 118 117
f 78 79 119 118
f 79 80 120 119
f 80 41 81 120
f 81 82 122 121
f 82 83 123 122
f 83 84 124 123
f 84 85 125 124
f 85 86 126 125
f 86 87 127 126
f 87 88 128 127
f 88 89 129 128
f 89 90 130 129
f 90 91 131 130
f 91 92 132 131
f 92 93 133 132
f 93 94 134 133
f 94 95 135 134
f 95 96 136 135
f 96 97 137 136
f 97 98 138 137
f 98 99 139 138
f 99 100 140 139
f 100 101 141 140
f 101 102 142 141
f 102 103 143 142
f 103 104 144 143
f 104 105 145 144
f 105 106 146 145
f 106 107 147 146
f 107 108 148 147
f 108 109 149 148
f 109 110 150 149
f 110 111 151 150
f 111 112 152 151
f 112 113 153 152
f 113 114 154 153
f 114 115 155 154
f 115 116 156 155
f 116 117 157 156
f 117 118 158 157
f 118 119 159 158
f 119 120 160 159
f 120 81 121 160
f 121 122 162 161
f 122 123 163 162
f 123 124 164 163
f 124 125 165 164
f 125 126 166 165
f 126 127 167 166
f 127 128 168 167
f 128 129 169 168
f 129 130 170 169
f 130 131 171 170
f 131 132 172 171
f 132 133 173 172
f 133 134 174 173
f 134 135 175 174
f 135 136 176 175
f 136 137 177 176
f 137 138 178 177
f 138 139 179 178
f 139 140 180 179
f 140 141 181 180
f 141 142 182 181
f 142 143 183 182
f 143 144 184 183
f 144 145 185 184
f 145 146 186 185
f 146 147 187 186
f 147 148 188 187
f 148 149 189 188
f 149 150 190 189
f 150 151 191 190
f 151 152 192 191
f 152 153 193 192
f 153 154 194 193
f 154 155 195 194
f 155 156 196 195
f 156 157 197 196
f 157 158 198 197
f 158 159 199 198
f 159 160 200 199
f 160 121 161 200
f 161 162 202 201
f 162 163 203 202
f 163 164 204 203
f 164 165 205 204
f 165 166 206 205
f 166 167 207 206
f 167 168 208 207
f 168 169 209 208
f 169 170 210 209
f 170 171 211 210
f 171 172 212 211
f 172 173 213 212
f 173 174 214 213
f 174 175 215 214
f 175 176 216 215
f 176 177 217 216
f 177 178 218 217
f 178 179 219 218
f 179 180 220 219
f 180 181 221 220
f 181 182 222 221
f 182 183 223 222
f 183 184 224 223
f 184 185 225 224
f 185 186 226 225
f 186 187 227 226
f 187 188 228 227
f 188 189 229 228
f 189 190 230 229
f 190 191 231 230
f 191 192 232 231
f 192 193 233 232
f 193 194 234 233
f 194 195 235 234
f 195 196 236 235
f 196 197 237 236
f 197 198 238 237
f 198 199 239 238
f 199 200 240 239
f 200 161 201 240
f 201 202 242 241
f 202 203 243 242
f 203 204 244 243
f 204 205 245 244
f 205 206 246 245
f 206 207 247 246
f 207 208 248 247
f 208 209 249 248
f 209 210 250 249
f 210 211 251 250
f 211 212 252 251
f 212 213 253 252
f 213 214 254 253
f 214 215 255 254
f 215 216 256 255
f 216 217 257 256
f 217 218 258 257
f 218 219 259 258
f 219 220 260 259
f 220 221 261 260
f 221 222 262 261
f 222 223 263 262
f 223 224 264 263
f 224 225 265 264
f 225 226 266 265
f 226 227 267 266
f 227 228 268 267
f 228 229 269 268
f 229 230 270 269
f 230 231 271 270
f 231 232 272 271
f 232 233 273 272
f 233 234 274 273
f 234 235 275 274
f 235 236 276 275
f 236 237 277 276
f 237 238 278 277
f 238 239 279 278
f 239 240 280 279
f 240 201 241 280
f 241 242 282 281
f 242 243 283 282
f 243 244 284 283
f 244 245 285 284
f 245 246 286 285
f 246 247 287 286
f 247 248 288 287
f 248 249 289 288
f 249 250 290 289
f 250 251 291 290
f 251 252 292 291
f 252 253 293 292
f 253 254 294 293
f 254 255 295 294
f 255 256 296 295
f 256 257 297 296
f 257 258 298 297
f 258 259 299 298
f 259 260 300 299
f 260 261 301 300
f 261 262 302 301
f 262 263 303 302
f 263 264 304 303
f 264 265 305 304
f 265 266 306 305
f 266 267 307 306
f 267 268 308 307
f 268 269 309 308
f 269 270 310 309
f 270 271 311 310
f 271 272 312 311
f 272 273 313 312
f 273 274 314 313
f 274 275 315 314
f 275 276 316 315
f 276 277 317 316
f 277 278 318 317
f 278 279 319 318
f 279 280 320 319
f 280 241 281 320
f 281 282 322 321
f 282 283 323 322
f 283 284 324 323
f 284 285 325 324
f 285 286 326 325
f 286 287 327 326
f 287 288 328 327
f 288 289 329 328
f 289 290 330 329
f 290 291 331 330
f 291 292 332 331
f 292 293 333 332
f 293 294 334 333
f 294 295 335 334
f 295 296 336 335
f 296 297 337 336
f 297 298 338 337
f 298 299 339 338
f 299 300 340 339
f 300 301 341 340
f 301 302 342 341
f 302 303 343 342
f 303 304 344 343
f 304 305 345 344
f 305 306 346 345
f 306 307 347 346
f 307 308 348 347
f 308 309 349 348
f 309 310 350 349
f 310 311 351 350
f 311 312 352 351
f 312 313 353 352
f 313 314 354 353
f 314 315 355 354
f 315 316 356 355
f 316 317 357 356
f 317 318 358 357
f 318 319 359 358
f 319 320 360 359
f 320 281 321 360
f 321 322 362 361
f 322 323 363 362
f 323 324 364 363
f 324 325 365 364
f 325 326 366 365
f 326 327 367 366
f 327 328 368 367
f 328 329 369 368
f 329 330 370 369
f 330 331 371 370
f 331 332 372 371
f 332 333 373 372
f 333 334 374 373
f 334 335 375 374
f 335 336 376 375
f 336 337 377 376
f 337 338 378 377
f 338 339 379 378
f 339 340 380 379
f 340 341 381 380
f 341 342 382 381
f 342 343 383 382
f 343 344 384 383
f 344 345 385 384
f 345 346 386 385
f 346 347 387 386
f 347 348 388 387
f 348 349 389 388
f 349 350 390 389
f 350 351 391 390
f 351 352 392 391
f 352 353 393 392
f 353 354 394 393
f 354 355 395 394
f 355 356 396 395
f 356 357 397 396
f 357 358 398 397
f 358 359 399 398
f 359 360 400 399
f 360 321 361 400
f 361 362 402 401
f 362 363 403 402
f 363 364 404 403
f 364 365 405 404
f 365 366 406 405
f 366 367 407 406
f 367 368 408 407
f 368 369 409 408
f 369 370 410 409
f 370 371 411 410
f 371 372 412 411
f 372 373 413 412
f 373 374 414 413
f 374 375 415 414
f 375 376 416 415
f 376 377 417 416
f 377 378 418 417
f 378 379 419 418
f 379 380 420 419
f 380 381 421 420
f 381 382 422 421
f 382 383 423 422
f 383 384 424 423
f 384 385 425 424
f 385 386 426 425
f 386 387 427 426
f 387 388 428 427
f 388 389 429 428
f 389 390 430 429
f 390 391 431 430
f 391 392 432 431
f 392 393 433 432
f 393 394 434 433
f 394 395 435 434
f 395 396 436 435
f 396 397 437 436
f 397 398 438 437
f 398 399 439 438
f 399 400 440 439
f 400 361 401 440
f 401 402 442 441
f 402 403 443 442
f 403 404 444 443
f 404 405 445 444
f 405 406 446 445
f 406 407 447 446
f 407 408 448 447
f 408 409 449 448
f 409 410 450 449
f 410 411 451 450
f 411 412 452 451
f 412 413 453 452
f 413 414 454 453
f 414 415 455 454
f 415 416 456 455
f 416 417 457 456
f 417 418 458 457
f 418 419 459 458
f 419 420 460 459
f 420 421 461 460
f 421 422 462 461
f 422 423 463 462
f 423 424 464 463
f 424 425 465 464
f 425 426 466 465
f 426 427 467 466
f 427 428 468 467
f 428 429 469 468
f 429 430 470 469
f 430 431 471 470
f 431 432 472 471
f 432 433 473 472
f 433 434 474 473
f 434 435 475 474
f 435 436 476 475
f 436 437 477 476
f 437 438 478 477
f 438 439 479 478
f 439 440 480 479
f 440 401 441 480
f 441 442 482 481
f 442 443 483 482
f 443 444 484 483
f 444 445 485 484
f 445 446 486 485
f 446 447 487 486
f 447 448 488 487
f 448 449 489 488
f 449 450 490 489
f 450 451 491 490
f 451 452 492 491
f 452 453 493 492
f 453 454 494 493
f 454 455 495 494
f 455 456 496 495
f 456 457 497 496
f 457 458 498 497
f 458 459 499 498
f 459 460 500 499
f 460 461 501 500
f 461 462 502 501
f 462 463 503 502
f 463 464 504 503
f 464 465 505 504
f 465 466 506 505
f 466 467 507 506
f 467 468 508 507
f 468 469 509 508
f 469 470 510 509
f 470 471 511 510
f 471 472 512 511
f 472 473 513 512
f 473 474 514 513
f 474 475 515 514
f 475 476 516 515
f 476 477 517 516
f 477 478 518 517
f 478 479 519 518
f 479 480 520 519
f 480 441 481 520
f 481 482 522 521
f 482 483 523 522
f 483 484 524 523
f 484 485 525 524
f 485 486 526 525
f 486 487 527 526
f 487 488 528 527
f 488 489 529 528
f 489 490 530 529
f 490 491 531 530
f 491 492 532 531
f 492 493 533 532
f 493 494 534 533
f 494 495 535 534
f 495 496 536 535
f 496 497 537 536
f 497 498 538 537
f 498 499 539 538
f 499 500 540 539
f 500 501 541 540
f 501 502 542 541
f 502 503 543 542
f 503 504 544 543
f 504 505 545 544
f 505 506 546 545
f 506 507 547 546
f 507 508 548 547
f 508 509 549 548
f 509 510 550 549
f 510 511 551 550
f 511 512 552 551
f 512 513 553 552
f 513 514 554 553
f 514 515 555 554
f 515 516 556 555
f 516 517 557 556
f 517 518 558 557
f 518 519 559 558
f 519 520 560 559
f 520 481 521 560
f 521 522 562 561
f 522 523 563 562
f 523 524 564 563
f 524 525 565 564
f 525 526 566 565
f 526 527 567 566
f 527 528 568 567
f 528 529 569 568
f 529 530 570 569
f 530 531 571 570
f 531 532 572 571
f 532 533 573 572
f 533 534 574 573
f 534 535 575 574
f 535 536 576 575
f 536 537 577 576
f 537 538 578 577
f 538 539 579 578
f 539 540 580 579
f 540 541 581 580
f 541 542 582 581
f 542 543 583 582
f 543 544 584 583
f 544 545 585 584
f 545 546 586 585
f 546 547 587 586
f 547 548 588 587
f 548 549 589 588
f 549 550 590 589
f 550 551 591 590
f 551 552 592 591
f 552 553 593 592
f 553 554 594 593
f 554 555 595 594
f 555 556 596 595
f 556 557 597 596
f 557 558 598 597
f 558 559 599 598
f 559 560 600 599
f 560 521 561 600
f 561 562 602 601
f 562 563 603 602
f 563 564 604 603
f 564 565 605 604
f 565 566 606 605
f 566 567 607 606
f 567 568 608 607
f 568 569 609 608
f 569 570 610 609
f 570 571 611 610
f 571 572 612 611
f 572 573 613 612
f 573 574 614 613
f 574 575 615 614
f 575 576 616 615
f 576 577 617 616
f 577 578 618 617
f 578 579 619 618
f 579 580 620 619
f 580 581 621 620
f 581 582 622 621
f 582 583 623 622
f 583 584 624 623
f 584 585 625 624
f 585 586 626 625
f 586 587 627 626
f 587 588 628 627
f 588 589 629 628
f 589 590 630 629
f 590 591 631 630
f 591 592 632 631
f 592 593 633 632
f 593 594 634 633
f 594 595 635 634
f 595 596 636 635
f 596 597 637 636
f 597 598 638 637
f 598 599 639 638
f 599 600 640 639
f 600 561 601 640
f 601 602 642 641
f 602 603 643 642
f 603 604 644 643
f 604 605 645 644
f 605 606 646 645
f 606 607 647 646
f 607 608 648 647
f 608 609 649 648
f 609 610 650 649
f 610 611 651 650
f 611 612 652 651
f 612 613 653 652
f 613 614 654 653
f 614 615 655 654
f 615 616 656 655
f 616 617 657 656
f 617 618 658 657
f 618 619 659 658
f 619 620 660 659
f 620 621 661 660
f 621 622 662 661
f 622 623 663 662
f 623 624 664 663
f 624 625 665 664
f 625 626 666 665
f 626 627 667 666
f 627 628 668 667
f 628 629 669 668
f 629 630 670 669
f 630 631 671 670
f 631 632 672 671
f 632 633 673 672
f 633 634 674 673
f 634 635 675 674
f 635 636 676 675
f 636 637 677 676
f 637 638 678 677
f 638 639 679 678
f 639 640 680 679
f 640 601 641 680
f 641 642 682 681
f 642 643 683 682
f 643 644 684 683
f 644 645 685 684
f 645 646 686 685
f 646 647 687 686
f 647 648 688 687
f 648 649 689 688
f 649 650 690 689
f 650 651 691 690
f 651 652 692 691
f 652 653 693 692
f 653 654 694 693
f 654 655 695 694
f 655 656 696 695
f 656 657 697 696
f 657 658 698 697
f 658 659 699 698
f 659 660 700 699
f 660 661 701 700
f 661 662 702 701
f 662 663 703 702
f 663 664 704 703
f 664 665 705 704
f 665 666 706 705
f 666 667 707 706
f 667 668 708 707
f 668 669 709 708
f 669 670 710 709
f 670 671 711 710
f 671 672 712 711
f 672 673 713 712
f 673 674 714 713
f 674 675 715 714
f 675 676 716 715
f 676 677 717 716
f 677 678 718 717
f 678 679 719 718
f 679 680 720 719
f 680 641 681 720
f 681 682 722 721
f 682 683 723 722
f 683 684 724 723
f 684 685 725 724
f 685 686 726 725
f 686 687 727 726
f 687 688 728 727
f 688 689 729 728
f 689 690 730 729
f 690 691 731 730
f 691 692 732 731
f 692 693 733 732
f 693 694 734 733
f 694 695 735 734
f 695 696 736 735
f 696 697 737 736
f 697 698 738 737
f 698 699 739 738
f 699 700 740 739
f 700 701 741 740
f 701 702 742 741
f 702 703 743 742
f 703 704 744 743
f 704 705 745 744
f 705 706 746 745
f 706 707 747 746
f 707 708 748 747
f 708 709 749 748
f 709 710 750 749
f 710 711 751 750
f 711 712 752 751
f 712 713 753 752
f 713 714 754 753
f 714 715 755 754
f 715 716 756 755
f 716 717 757 756
f 717 718 758 757
f 718 719 759 758
f 719 720 760 759
f 720 681 721 760
f 721 722 762 761
f 722 723 763 762
f 723 724 764 763
f 724 725 765 764
f 725 726 766 765
f 726 727 767 766
f 727 728 768 767
f 728 729 769 768
f 729 730 770 769
f 730 731 771 770
f 731 732 772 771
f 732 733 773 772
f 733 734 774 773
f 734 735 775 774
f 735 736 776 775
f 736 737 777 776
f 737 738 778 777
f 738 739 779 778
f 739 740 780 779
f 740 741 781 780
f 741 742 782 781
f 742 743 783 782
f 743 744 784 783
f 744 745 785 784
f 745 746 786 785
f 746 747 787 786
f 747 748 788 787
f 748 749 789 788
f 749 750 790 789
f 750 751 791 790
f 751 752 792 791
f 752 753 793 792
f 753 754 794 793
f 754 755 795 794
f 755 756 796 795
f 756 757 797 796
f 757 758 798 797
f 758 759 799 798
f 759 760 800 799
f 760 721 761 800
f 761 762 802 801
f 762 763 803 802
f 763 764 804 803
f 764 765 805 804
f 765 766 806 805
f 766 767 807 806
f 767 768 808 807
f 768 769 809 808
f 769 770 810 809
f 770 771 811 810
f 771 772 812 811
f 772 773 813 812
f 773 774 814 813
f 774 775 815 814
f 775 776 816 815
f 776 777 817 816
f 777 778 818 817
f 778 779 819 818
f 779 780 820 819
f 780 781 821 820
f 781 782 822 821
f 782 783 823 822
f 783 784 824 823
f 784 785 825 824
f 785 786 826 825
f 786 787 827 826
f 787 788 828 827
f 788 789 829 828
f 789 790 830 829
f 790 791 831 830
f 791 792 832 831
f 792 793 833 832
f 793 794 834 833
f 794 795 835 834
f 795 796 836 835
f 796 797 837 836
f 797 798 838 837
f 798 799 839 838
f 799 800 840 839
f 800 761 801 840
f 801 802 842 841
f 802 803 843 842
f 803 804 844 843
f 804 805 845 844
f 805 806 846 845
f 806 807 847 846
f 807 808 848 847
f 808 809 849 848
f 809 810 850 849
f 810 811 851 850
f 811 812 852 851
f 812 813 853 852
f 813 814 854 853
f 814 815 855 854
f 815 816 856 855
f 816 817 857 856
f 817 818 858 857
f 818 819 859 858
f 819 820 860 859
f 820 821 861 860
f 821 822 862 861
f 822 823 863 862
f 823 824 864 863
f 824 825 865 864
f 825 826 866 865
f 826 827 867 866
f 827 828 868 867
f 828 829 869 868
f 829 830 870 869
f 830 831 871 870
f 831 832 872 871
f 832 833 873 872
f 833 834 874 873
f 834 835 875 874
f 835 836 876 875
f 836 837 877 876
f 837 838 878 877
f 838 839 879 878
f 839 840 880 879
f 840 801 841 880
f 841 842 882 881
f 842 843 883 882
f 843 844 884 883
f 844 845 885 884
f 845 846 886 885
f 846 847 887 886
f 847 848 888 887
f 848 849 889 888
f 849 850 890 889
f 850 851 891 890
f 851 852 892 891
f 852 853 893 892
f 853 854 894 893
f 854 855 895 894
f 855 856 896 895
f 856 857 897 896
f 857 858 898 897
f 858 859 899 898
f 859 860 900 899
f 860 861 901 900
f 861 862 902 901
f 862 863 903 902
f 863 864 904 903
f 864 865 905 904
f 865 866 906 905
f 866 867 907 906
f 867 868 908 907
f 868 869 909 908
f 869 870 910 909
f 870 871 911 910
f 871 872 912 911
f 872 873 913 912
f 873 874 914 913
f 874 875 915 914
f 875 876 916 915
f 876 877 917 916
f 877 878 918 917
f 878 879 919 918
f 879 880 920 919
f 880 841 881 920
f 881 882 922 921
f 882 883 923 922
f 883 884 924 923
f 884 885 925 924
f 885 886 926 925
f 886 887 927 926
f 887 888 928 927
f 888 889 929 928
f 889 890 930 929
f 890 891 931 930
f 891 892 932 931
f 892 893 933 932
f 893 894 934 933
f 894 895 935 934
f 895 896 936 935
f 896 897 937 936
f 897 898 938 937
f 898 899 939 938
f 899 900 940 939
f 900 901 941 940
f 901 902 942 941
f 902 903 943 942
f 903 904 944 943
f 904 905 945 944
f 905 906 946 945
f 906 907 947 946
f 907 908 948 947
f 908 909 949 948
f 909 910 950 949
f 910 911 951 950
f 911 912 952 951
f 912 913 953 952
f 913 914 954 953
f 914 915 955 954
f 915 916 956 955
f 916 917 957 956
f 917 918 958 957
f 918 919 959 958
f 919 920 960 959
f 920 881 921 960
f 921 922 962 961
f 922 923 963 962
f 923 924 964 963
f 924 925 965 964
f 925 926 966 965
f 926 927 967 966
f 927 928 968 967
f 928 929 969 968
f 929 930 970 969
f 930 931 971 970
f 931 932 972 971
f 932 933 973 972
f 933 934 974 973
f 934 935 975 974
f 935 936 976 975
f 936 937 977 976
f 937 938 978 977
f 938 939 979 978
f 939 940 980 979
f 940 941 981 980
f 941 942 982 981
f 942 943 983 982
f 943 944 984 983
f 944 945 985 984
f 945 946 986 985
f 946 947 987 986
f 947 948 988 987
f 948 949 989 988
f 949 950 990 989
f 950 951 991 990
f 951 952 992 991
f 952 953 993 992
f 953 954 994 993
f 954 955 995 994
f 955 956 996 995
f 956 957 997 996
f 957 958 998 997
f 958 959 999 998
f 959 960 1000 999
f 960 921 961 1000
f 961 962 1002 1001
f 962 963 1003 1002
f 963 964 1004 1003
f 964 965 1005 1004
f 965 966 1006 1005
f 966 967 1007 1006
f 967 968 1008 1007
f 968 969 1009 1008
f 969 970 1010 1009
f 970 971 1011 1010
f 971 972 1012 1011
f 972 973 1013 1012
f 973 974 1014 1013
f 974 975 1015 1014
f 975 976 1016 1015
f 976 977 1017 1016
f 977 978 1018 1017
f 978 979 1019 1018
f 979 980 1020 1019
f 980 981 1021 1020
f 981 982 1022 1021
f 982 983 1023 1022
f 983 984 1024 1023
f 984 985 1025 1024
f 985 986 1026 1025
f 986 987 1027 1026
f 987 988 1028 1027
f 988 989 1029 1028
f 989 990 1030 1029
f 990 991 1031 1030
f 991 992 1032 1031
f 992 993 1033 1032
f 993 994 1034 1033
f 994 995 1035 1034
f 995 996 1036 1035
f 996 997 1037 1036
f 997 998 1038 1037
f 998 999 1039 1038
f 999 1000 1040 1039
f 1000 961 1001 1040
f 1001 1002 1042 1041
f 1002 1003 1043 1042
f 1003 1004 1044 1043
f 1004 1005 1045 1044
f 1005 1006 1046 1045
f 1006 1007 1047 1046
f 1007 1008 1048 1047
f 1008 1009 1049 1048
f 1009 1010 1050 1049
f 1010 1011 1051 1050
f 1011 1012 1052 1051
f 1012 1013 1053 1052
f 1013 1014 1054 1053
f 1014 1015 1055 1054
f 1015 1016 1056 1055
f 1016 1017 1057 1056
f 1017 1018 1058 1057
f 1018 1019 1059 1058
f 1019 1020 1060 1059
f 1020 1021 1061 1060
f 1021 1022 1062 1061
f 1022 1023 1063 1062
f 1023 1024 1064 1063
f 1024 1025 1065 1064
f 1025 1026 1066 1065
f 1026 1027 1067 1066
f 1027 1028 1068 1067
f 1028 1029 1069 1068
f 1029 1030 1070 1069
f 1030 1031 1071 1070
f 1031 1032 1072 1071
f 1032 1033 1073 1072
f 1033 1034 1074 1073
f 1034 1035 1075 1074
f 1035 1036 1076 1075
f 1036 1037 1077 1076
f 1037 1038 1078 1077
f 1038 1039 1079 1078
f 1039 1040 1080 1079
f 1040 1001 1041 1080
f 1041 1042 1082 1081
f 1042 1043 1083 1082
f 1043 1044 1084 1083
f 1044 1045 1085 1084
f 1045 1046 1086 1085
f 1046 1047 1087 1086
f 1047 1048 1088 1087
f 1048 1049 1089 1088
f 1049 1050 1090 1089
f 1050 1051 1091 1090
f 1051 1052 1092 1091
f 1052 1053 1093 1092
f 1053 1054 1094 1093
f 1054 1055 1095 1094
f 1055 1056 1096 1095
f 1056 1057 1097 1096
f 1057 1058 1098 1097
f 1058 1059 1099 1098
f 1059 1060 1100 1099
f 1060 1061 1101 1100
f 1061 1062 1102 1101
f 1062 1063 1103 1102
f 1063 1064 1104 1103
f 1064 1065 1105 1104
f 1065 1066 1106 1105
f 1066 1067 1107 1106
f 1067 1068 1108 1107
f 1068 1069 1109 1108
f 1069 1070 1110 1109
f 1070 1071 1111 1110
f 1071 1072 1112 1111
f 1072 1073 1113 1112
f 1073 1074 1114 1113
f 1074 1075 1115 1114
f 1075 1076 1116 1115
f 1076 1077 1117 1116
f 1077 1078 1118 1117
f 1078 1079 1119 1118
f 1079 1080 1120 1119
f 1080 1041 1081 1120
f 1081 1082 1122 1121
f 1082 1083 1123 1122
f 1083 1084 1124 1123
f 1084 1085 1125 1124
f 1085 1086 1126 1125
f 1086 1087 1127 1126
f 1087 1088 1128 1127
f 1088 1089 1129 1128
f 1089 1090 1130 1129
f 1090 1091 1131 1130
f 1091 1092 1132 1131
f 1092 1093 1133 1132
f 1093 1094 1134 1133
f 1094 1095 1135 1134
f 1095 1096 1136 1135
f 1096 1097 1137 1136
f 1097 1098 1138 1137
f 1098 1099 1139 1138
f 1099 1100 1140 1139
f 1100 1101 1141 1140
f 1101 1102 1142 1141
f 1102 1103 1143 1142
f 1103 1104 1144 1143
f 1104 1105 1145 1144
f 1105 1106 1146 1145
f 1106 1107 1147 1146
f 1107 1108 1148 1147
f 1108 1109 1149 1148
f 1109 1110 1150 1149
f 1110 1111 1151 1150
f 1111 1112 1152 1151
f 1112 1113 1153 1152
f 1113 1114 1154 1153
f 1114 1115 1155 1154
f 1115 1116 1156 1155
f 1116 1117 1157 1156
f 1117 1118 1158 1157
f 1118 1119 1159 1158
f 1119 1120 1160 1159
f 1120 1081 1121 1160
f 1121 1122 1162 1161
f 1122 1123 1163 1162
f 1123 1124 1164 1163
f 1124 1125 1165 1164
f 1125 1126 1166 1165
f 1126 1127 1167 1166
f 1127 1128 1168 1167
f 1128 1129 1169 1168
f 1129 1130 1170 1169
f 1130 1131 1171 1170
f 1131 1132 1172 1171
f 1132 1133 1173 1172
f 1133 1134 1174 1173
f 1134 1135 1175 1174
f 1135 1136 1176 1175
f 1136 1137 1177 1176
f 1137 1138 1178 1177
f 1138 1139 1179 1178
f 1139 1140 1180 1179
f 1140 1141 1181 1180
f 1141 1142 1182 1181
f 1142 1143 1183 1182
f 1143 1144 1184 1183
f 1144 1145 1185 1184
f 1145 1146 1186 1185
f 1146 1147 1187 1186
f 1147 1148 1188 1187
f 1148 1149 1189 1188
f 1149 1150 1190 1189
f 1150 1151 1191 1190
f 1151 1152 1192 1191
f 1152 1153 1193 1192
f 1153 1154 1194 1193
f 1154 1155 1195 1194
f 1155 1156 1196 1195
f 1156 1157 1197 1196
f 1157 1158 1198 1197
f 1158 1159 1199 1198
f 1159 1160 1200 1199
f 1160 1121 1161 1200
f 1161 1162 1202 1201
f 1162 1163 1203 1202
f 1163 1164 1204 1203
f 1164 1165 1205 1204
f 1165 1166 1206 1205
f 1166 1167 1207 1206
f 1167 1168 1208 1207
f 1168 1169 1209 1208
f 1169 1170 1210 1209
f 1170 1171 1211 1210
f 1171 1172 1212 1211
f 1172 1173 1213 1212
f 1173 1174 1214 1213
f 1174 1175 1215 1214
f 1175 1176 1216 1215
f 1176 1177 1217 1216
f 1177 1178 1218 1217
f 1178 1179 1219 1218
f 1179 1180 1220 1219
f 1180 1181 1221 1220
f 1181 1182 1222 1221
f 1182 1183 1223 1222
f 1183 1184 1224 1223
f 1184 1185 1225 1224
f 1185 1186 1226 1225
f 1186 1187 1227 1226
f 1187 1188 1228 1227
f 1188 1189 1229 1228
f 1189 1190 1230 1229
f 1190 1191 1231 1230
f 1191 1192 1232 1231
f 1192 1193 1233 1232
f 1193 1194 1234 1233
f 1194 1195 1235 1234
f 1195 1196 1236 1235
f 1196 1197 1237 1236
f 1197 1198 1238 1237
f 1198 1199 1239 1238
f 1199 1200 1240 1239
f 1200 1161 1201 1240
f 1201 1202 1242 1241
f 1202 1203 1243 1242
f 1203 1204 1244 1243
f 1204 1205 1245 1244
f 1205 1206 1246 1245
f 1206 1207 1247 1246
f 1207 1208 1248 1247
f 1208 1209 1249 1248
f 1209 1210 1250 1249
f 1210 1211 1251 1250
f 1211 1212 1252 1251
f 1212 1213 1253 1252
f 1213 1214 1254 1253
f 1214 1215 1255 1254
f 1215 1216 1256 1255
f 1216 1217 1257 1256
f 1217 1218 1258 1257
f 1218 1219 1259 1258
f 1219 1220 1260 1259
f 1220 1221 1261 1260
f 1221 1222 1262 1261
f 1222 1223 1263 1262
f 1223 1224 1264 1263
f 1224 1225 1265 1264
f 1225 1226 1266 1265
f 1226 1227 1267 1266
f 1227 1228 1268 1267
f 1228 1229 1269 1268
f 1229 1230 1270 1269
f 1230 1231 1271 1270
f 1231 1232 1272 1271
f 1232 1233 1273 1272
f 1233 1234 1274 1273
f 1234 1235 1275 1274
f 1235 1236 1276 1275
f 1236 1237 1277 1276
f 1237 1238 1278 1277
f 1238 1239 1279 1278
f 1239 1240 1280 1279
f 1240 1201 1241 1280
f 1241 1242 1282 1281
f 1242 1243 1283 1282
f 1243 1244 1284 1283
f 1244 1245 1285 1284
f 1245 1246 1286 1285
f 1246 1247 1287 1286
f 1247 1248 1288 1287
f 1248 1249 1289 1288
f 1249 1250 1290 1289
f 1250 1251 1291 1290
f 1251 1252 1292 1291
f 1252 1253 1293 1292
f 1253 1254 1294 1293
f 1254 1255 1295 1294
f 1255 1256 1296 1295
f 1256 1257 1297 1296
f 1257 1258 1298 1297
f 1258 1259 1299 1298
f 1259 1260 1300 1299
f 1260 1261 1301 1300
f 1261 1262 1302 1301
f 1262 1263 1303 1302
f 1263 1264 1304 1303
f 1264 1265 1305 1304
f 1265 1266 1306 1305
f 1266 1267 1307 1306
f 1267 1268 1308 1307
f 1268 1269 1309 1308
f 1269 1270 1310 1309
f 1270 1271 1311 1310
f 1271 1272 1312 1311
f 1272 1273 1313 1312
f 1273 1274 1314 1313
f 1274 1275 1315 1314
f 1275 1276 1316 1315
f 1276 1277 1317 1316
f 1277 1278 1318 1317
f 1278 1279 1319 1318
f 1279 1280 1320 1319
f 1280 1241 1281 1320
f 1281 1282 1322 1321
f 1282 1283 1323 1322
f 1283 1284 1324 1323
f 1284 1285 1325 1324
f 1285 1286 1326 1325
f 1286 1287 1327 1326
f 1287 1288 1328 1327
f 1288 1289 1329 1328
f 1289 1290 1330 1329
f 1290 1291 1331 1330
f 1291 1292 1332 1331
f 1292 1293 1333 1332
f 1293 1294 1334 1333
f 1294 1295 1335 1334
f 1295 1296 1336 1335
f 1296 1297 1337 1336
f 1297 1298 1338 1337
f 1298 1299 1339 1338
f 1299 1300 1340 1339
f 1300 1301 1341 1340
f 1301 1302 1342 1341
f 1302 1303 1343 1342
f 1303 1304 1344 1343
f 1304 1305 1345 1344
f 1305 1306 1346 1345
f 1306 1307 1347 1346
f 1307 1308 1348 1347
f 1308 1309 1349 1348
f 1309 1310 1350 1349
f 1310 1311 1351 1350
f 1311 1312 1352 1351
f 1312 1313 1353 1352
f 1313 1314 1354 1353
f 1314 1315 1355 1354
f 1315 1316 1356 1355
f 1316 1317 1357 1356
f 1317 1318 1358 1357
f 1318 1319 1359 1358
f 1319 1320 1360 1359
f 1320 1281 1321 1360
f 1321 1322 1362 1361
f 1322 1323 1363 1362
f 1323 1324 1364 1363
f 1324 1325 1365 1364
f 1325 1326 1366 1365
f 1326 1327 1367 1366
f 1327 1328 1368 1367
f 1328 1329 1369 1368
f 1329 1330 1370 1369
f 1330 1331 1371 1370
f 1331 1332 1372 1371
f 1332 1333 1373 1372
f 1333 1334 1374 1373
f 1334 1335 1375 1374
f 1335 1336 1376 1375
f 1336 1337 1377 1376
f 1337 1338 1378 1377
f 1338 1339 1379 1378
f 1339 1340 1380 1379
f 1340 1341 1381 1380
f 1341 1342 1382 1381
f 1342 1343 1383 1382
f 1343 1344 1384 1383
f 1344 1345 1385 1384
f 1345 1346 1386 1385
f 1346 1347 1387 1386
f 1347 1348 1388 1387
f 1348 1349 1389 1388
f 1349 1350 1390 1389
f 1350 1351 1391 1390
f 1351 1352 1392 1391
f 1352 1353 1393 1392
f 1353 1354 1394 1393
f 1354 1355 1395 1394
f 1355 1356 1396 1395
f 1356 1357 1397 1396
f 1357 1358 1398 1397
f 1358 1359 1399 1398
f 1359 1360 1400 1399
f 1360 1321 1361 1400
f 1361 1362 1402 1401
f 1362 1363 1403 1402
f 1363 1364 1404 1403
f 1364 1365 1405 1404
f 1365 1366 1406 1405
f 1366 1367 1407 1406
f 1367 1368 1408 1407
f 1368 1369 1409 1408
f 1369 1370 1410 1409
f 1370 1371 1411 1410
f 1371 1372 1412 1411
f 1372 1373 1413 1412
f 1373 1374 1414 1413
f 1374 1375 1415 1414
f 1375 1376 1416 1415
f 1376 1377 1417 1416
f 1377 1378 1418 1417
f 1378 1379 1419 1418
f 1379 1380 1420 1419
f 1380 1381 1421 1420
f 1381 1382 1422 1421
f 1382 1383 1423 1422
f 1383 1384 1424 1423
f 1384 1385 1425 1424
f 1385 1386 1426 1425
f 1386 1387 1427 1426
f 1387 1388 1428 1427
f 1388 1389 1429 1428
f 1389 1390 1430 1429
f 1390 1391 1431 1430
f 1391 1392 1432 1431
f 1392 1393 1433 1432
f 1393 1394 1434 1433
f 1394 1395 1435 1434
f 1395 1396 1436 1435
f 1396 1397 1437 1436
f 1397 1398 1438 1437
f 1398 1399 1439 1438
f 1399 1400 1440 1439
f 1400 1361 1401 1440
f 1401 1402 1442 1441
f 1402 1403 1443 1442
f 1403 1404 1444 1443
f 1404 1405 1445 1444
f 1405 1406 1446 1445
f 1406 1407 1447 1446
f 1407 1408 1448 1447
f 1408 1409 1449 1448
f 1409 1410 1450 1449
f 1410 1411 1451 1450
f 1411 1412 1452 1451
f 1412 1413 1453 1452
f 1413 1414 1454 1453
f 1414 1415 1455 1454
f 1415 1416 1456 1455
f 1416 1417 1457 1456
f 1417 1418 1458 1457
f 1418 1419 1459 1458
f 1419 1420 1460 1459
f 1420 1421 1461 1460
f 1421 1422 1462 1461
f 1422 1423 1463 1462
f 1423 1424 1464 1463
f 1424 1425 1465 1464
f 1425 1426 1466 1465
f 1426 1427 1467 1466
f 1427 1428 1468 1467
f 1428 1429 1469 1468
f 1429 1430 1470 1469
f 1430 1431 1471 1470
f 1431 1432 1472 1471
f 1432 1433 1473 1472
f 1433 1434 1474 1473
f 1434 1435 1475 1474
f 1435 1436 1476 1475
f 1436 1437 1477 1476
f 1437 1438 1478 1477
f 1438 1439 1479 1478
f 1439 1440 1480 1479
f 1440 1401 1441 1480
f 1441 1442 1482 1481
f 1442 1443 1483 1482
f 1443 1444 1484 1483
f 1444 1445 1485 1484
f 1445 1446 1486 1485
f 1446 1447 1487 1486
f 1447 1448 1488 1487
f 1448 1449 1489 1488
f 1449 1450 1490 1489
f 1450 1451 1491 1490
f 1451 1452 1492 1491
f 1452 1453 1493 1492
f 1453 1454 1494 1493
f 1454 1455 1495 1494
f 1455 1456 1496 1495
f 1456 1457 1497 1496
f 1457 1458 1498 1497
f 1458 1459 1499 1498
f 1459 1460 1500 1499
f 1460 1461 1501 1500
f 1461 1462 1502 1501
f 1462 1463 1503 1502
f 1463 1464 1504 1503
f 1464 1465 1505 1504
f 1465 1466 1506 1505
f 1466 1467 1507 1506
f 1467 1468 1508 1507
f 1468 1469 1509 1508
f 1469 1470 1510 1509
f 1470 1471 1511 1510
f 1471 1472 1512 1511
f 1472 1473 1513 1512
f 1473 1474 1514 1513
f 1474 1475 1515 1514
f 1475 1476 1516 1515
f 1476 1477 1517 1516
f 1477 1478 1518 1517
f 1478 1479 1519 1518
f 1479 1480 1520 1519
f 1480 1441 1481 1520
f 1481 1482 1522 1521
f 1482 1483 1523 1522
f 1483 1484 1524 1523
f 1484 1485 1525 1524
f 1485 1486 1526 1525
f 1486 1487 1527 1526
f 1487 1488 1528 1527
f 1488 1489 1529 1528
f 1489 1490 1530 1529
f 1490 1491 1531 1530
f 1491 1492 1532 1531
f 1492 1493 1533 1532
f 1493 1494 1534 1533
f 1494 1495 1535 1534
f 1495 1496 1536 1535
f 1496 1497 1537 1536
f 1497 1498 1538 1537
f 1498 1499 1539 1538
f 1499 1500 1540 1539
f 1500 1501 1541 1540
f 1501 1502 1542 1541
f 1502 1503 1543 1542
f 1503 1504 1544 1543
f 1504 1505 1545 1544
f 1505 1506 1546 1545
f 1506 1507 1547 1546
f 1507 1508 1548 1547
f 1508 1509 1549 1548
f 1509 1510 1550 1549
f 1510 1511 1551 1550
f 1511 1512 1552 1551
f 1512 1513 1553 1552
f 1513 1514 1554 1553
f 1514 1515 1555 1554
f 1515 1516 1556 1555
f 1516 1517 1557 1556
f 1517 1518 1558 1557
f 1518 1519 1559 1558
f 1519 1520 1560 1559
f 1520 1481 1521 1560
f 1521 1522 1562 1561
f 1522 1523 1563 1562
f 1523 1524 1564 1563
f 1524 1525 1565 1564
f 1525 1526 1566 1565
f 1526 1527 1567 1566
f 1527 1528 1568 1567
f 1528 1529 1569 1568
f 1529 1530 1570 1569
f 1530 1531 1571 1570
f 1531 1532 1572 1571
f 1532 1533 1573 1572
f 1533 1534 1574 1573
f 1534 1535 1575 1574
f 1535 1536 1576 1575
f 1536 1537 1577 1576
f 1537 1538 1578 1577
f 1538 1539 1579 1578
f 1539 1540 1580 1579
f 1540 1541 1581 1580
f 1541 1542 1582 1581
f 1542 1543 1583 1582
f 1543 1544 1584 1583
f 1544 1545 1585 1584
f 1545 1546 1586 1585
f 1546 1547 1587 1586
f 1547 1548 1588 1587
f 1548 1549 1589 1588
f 1549 1550 1590 1589
f 1550 1551 1591 1590
f 1551 1552 1592 1591
f 1552 1553 1593 1592
f 1553 1554 1594 1593
f 1554 1555 1595 1594
f 1555 1556 1596 1595
f 1556 1557 1597 1596
f 1557 1558 1598 1597
f 1558 1559 1599 1598
f 1559 1560 1600 1599
f 1560 1521 1561 1600
f 1561 1562 1602 1601
f 1562 1563 1603 1602
f 1563 1564 1604 1603
f 1564 1565 1605 1604
f 1565 1566 1606 1605
f 1566 1567 1607 1606
f 1567 1568 1608 1607
f 1568 1569 1609 1608
f 1569 1570 1610 1609
f 1570 1571 1611 1610
f 1571 1572 1612 1611
f 1572 1573 1613 1612
f 1573 1574 1614 1613
f 1574 1575 1615 1614
f 1575 1576 1616 1615
f 1576 1577 1617 1616
f 1577 1578 1618 1617
f 1578 1579 1619 1618
f 1579 1580 1620 1619
f 1580 1581 1621 1620
f 1581 1582 1622 1621
f 1582 1583 1623 1622
f 1583 1584 1624 1623
f 1584 1585 1625 1624
f 1585 1586 1626 1625
f 1586 1587 1627 1626
f 1587 1588 1628 1627
f 1588 1589 1629 1628
f 1589 1590 1630 1629
f 1590 1591 1631 1630
f 1591 1592 1632 1631
f 1592 1593 1633 1632
f 1593 1594 1634 1633
f 1594 1595 1635 1634
f 1595 1596 1636 1635
f 1596 1597 1637 1636
f 1597 1598 1638 1637
f 1598 1599 1639 1638
f 1599 1600 1640 1639
f 1600 1561 1601 1640
